<?xml version="1.0" encoding="utf-8"?>
<!-- Generator: Adobe Illustrator 27.5.0, SVG Export Plug-In . SVG Version: 6.00 Build 0)  -->
<svg version="1.1" xmlns="http://www.w3.org/2000/svg" xmlns:xlink="http://www.w3.org/1999/xlink" x="0px" y="0px"
	 viewBox="0 0 500 500" style="enable-background:new 0 0 500 500;" xml:space="preserve">
<style type="text/css">
	.st0{fill:#EBEBEB;}
	.st1{fill:#E0E0E0;}
	.st2{fill:#F0F0F0;}
	.st3{fill:#F5F5F5;}
	.st4{fill:#E6E6E6;}
	.st5{fill:#FAFAFA;}
	.st6{fill:#FFFFFF;}
	.st7{display:none;}
	.st8{display:inline;}
	.st9{fill:#407BFF;}
	.st10{opacity:0.9;fill:#FFFFFF;}
	.st11{fill:#263238;}
	.st12{fill:#F54278;}
	.st13{opacity:0.3;fill:#FFFFFF;}
	.st14{opacity:0.2;}
	.st15{opacity:0.4;fill:#FFFFFF;}
	.st16{opacity:0.8;fill:#FFFFFF;}
	.st17{opacity:0.1;}
	.st18{opacity:0.5;}
	.st19{opacity:0.6;fill:#FFFFFF;}
	.st20{opacity:0.5;fill:#FFFFFF;}
	.st21{fill-rule:evenodd;clip-rule:evenodd;fill:#F54278;}
	.st22{fill:#803E3C;}
	.st23{fill:#7F3E3B;}
	.st24{fill:#630F0F;}
	.st25{opacity:0.2;fill:#FFFFFF;}
</style>
<g id="Background_Complete">
	<g>
		<rect x="416.78" y="398.49" class="st0" width="33.12" height="0.25"/>
		<rect x="322.53" y="401.21" class="st0" width="8.69" height="0.25"/>
		<rect x="396.59" y="389.21" class="st0" width="19.19" height="0.25"/>
		<rect x="52.46" y="390.89" class="st0" width="43.19" height="0.25"/>
		<rect x="104.56" y="390.89" class="st0" width="6.33" height="0.25"/>
		<rect x="131.47" y="395.11" class="st0" width="93.68" height="0.25"/>
		<path class="st0" d="M237.01,337.8H43.92c-3.15,0-5.71-2.56-5.71-5.71V60.66c0-3.15,2.56-5.71,5.71-5.71h193.1
			c3.15,0,5.71,2.56,5.71,5.71v271.43C242.72,335.24,240.16,337.8,237.01,337.8z M43.92,55.2c-3.01,0-5.46,2.45-5.46,5.46v271.43
			c0,3.01,2.45,5.46,5.46,5.46h193.1c3.01,0,5.46-2.45,5.46-5.46V60.66c0-3.01-2.45-5.46-5.46-5.46H43.92z"/>
		<path class="st0" d="M453.31,337.8h-193.1c-3.15,0-5.71-2.56-5.71-5.71V60.66c0-3.15,2.56-5.71,5.71-5.71h193.1
			c3.15,0,5.71,2.56,5.71,5.71v271.43C459.02,335.24,456.46,337.8,453.31,337.8z M260.21,55.2c-3.01,0-5.46,2.45-5.46,5.46v271.43
			c0,3.01,2.45,5.46,5.46,5.46h193.1c3.01,0,5.46-2.45,5.46-5.46V60.66c0-3.01-2.45-5.46-5.46-5.46H260.21z"/>
		<rect y="382.4" class="st0" width="500" height="0.25"/>
	</g>
	<g>
		
			<ellipse transform="matrix(0.9732 -0.2298 0.2298 0.9732 -41.5081 100.145)" class="st1" cx="409.3" cy="228.32" rx="19.84" ry="19.84"/>
		
			<ellipse transform="matrix(0.9732 -0.2298 0.2298 0.9732 -41.4255 100.8544)" class="st2" cx="412.39" cy="228.32" rx="19.84" ry="19.84"/>
		
			<ellipse transform="matrix(0.9239 -0.3827 0.3827 0.9239 -55.9836 175.1934)" class="st3" cx="412.39" cy="228.32" rx="15.25" ry="15.25"/>
		<path class="st1" d="M425.32,228.32c0-8.03-6.21-14.6-14.1-15.2c0.38-0.03,0.77-0.06,1.16-0.06c8.42,0,15.25,6.83,15.25,15.25
			s-6.83,15.25-15.25,15.25c-0.39,0-0.77-0.03-1.16-0.06C419.11,242.92,425.32,236.35,425.32,228.32z"/>
		<polygon class="st4" points="412.39,218.62 410.21,225.32 403.16,225.32 408.86,229.47 406.68,236.17 412.39,232.03 
			418.09,236.17 415.91,229.47 421.61,225.32 414.56,225.32 		"/>
	</g>
	<g>
		<path class="st0" d="M420.63,337.92l-58.52,12.44c-3.71,0.79-7.35-1.58-8.14-5.28l-2.19-10.3c-0.79-3.71,1.58-7.35,5.28-8.14
			l58.52-12.44c3.71-0.79,7.35,1.58,8.14,5.28l2.19,10.3C426.7,333.49,424.33,337.13,420.63,337.92z"/>
		<path class="st5" d="M389.63,325.24c-2.93-1.9-6.85-1.07-8.75,1.86c-1.9,2.93-1.07,6.85,1.86,8.75c2.59,1.68,5.95,1.22,8.01-0.93
			c0.11,0.3,0.29,0.58,0.58,0.77l5.06,3.29c0.7,0.45,1.63,0.26,2.09-0.44c0.45-0.7,0.26-1.63-0.44-2.09l-5.06-3.29
			c-0.29-0.19-0.62-0.24-0.94-0.21C393.17,330.19,392.22,326.93,389.63,325.24z M389.96,333c-1.35,2.08-4.14,2.67-6.22,1.32
			c-2.08-1.35-2.67-4.14-1.32-6.22c1.35-2.08,4.14-2.67,6.22-1.32C390.72,328.13,391.31,330.91,389.96,333z"/>
	</g>
	<path class="st0" d="M123.82,322.42c-8.94,3.06-13.7,12.79-10.63,21.73c2.38,6.93,16.47,16.31,22.68,20.18
		c1.52,0.95,3.53,0.26,4.15-1.42c2.53-6.86,7.9-22.92,5.53-29.85C142.49,324.12,132.76,319.36,123.82,322.42z M132.01,346.31
		c-4.25,1.46-8.89-0.81-10.35-5.06c-1.46-4.25,0.81-8.89,5.06-10.35c4.25-1.46,8.89,0.81,10.35,5.06
		C138.53,340.22,136.27,344.85,132.01,346.31z"/>
	<g>
		<path class="st1" d="M120.83,137.46h-8.15c-1.92,0-3.71,0.96-4.76,2.56l-1.19,1.8c-0.97,1.47-2.61,2.35-4.37,2.35H81.35
			c-1.88,0-3.41,1.53-3.41,3.41v32.81h47.38v-36.22l-0.42-3.15C124.63,138.98,122.89,137.46,120.83,137.46z"/>
		<rect x="81.49" y="148.31" class="st5" width="40.27" height="27.54"/>
		<path class="st2" d="M125.31,180.39H77.94l-6.95-25.31c-0.53-1.92,0.92-3.81,2.9-3.81h38.82c2.72,0,5.1,1.82,5.82,4.44
			L125.31,180.39z"/>
	</g>
	<g>
		<g>
			<path class="st1" d="M195.97,105.44h33.7c1.81,0,3.28-1.54,3.28-3.43l0,0h-40.27l0,0C192.69,103.9,194.16,105.44,195.97,105.44z"
				/>
			<path class="st2" d="M219.52,105.44h33.7c1.81,0,3.28-1.54,3.28-3.43l0,0h-40.27l0,0C216.23,103.9,217.7,105.44,219.52,105.44z"
				/>
			<path class="st1" d="M195.7,104.39h20.55c0.54,0,0.91-0.55,0.73-1.08l-11.27-33.63c-0.31-0.93-1.15-1.55-2.09-1.55h-20.55
				c-0.54,0-0.91,0.55-0.73,1.08l11.27,33.63C193.92,103.77,194.76,104.39,195.7,104.39z"/>
			<path class="st2" d="M194.71,104.39h20.55c0.54,0,0.91-0.55,0.73-1.08l-11.27-33.63c-0.31-0.93-1.15-1.55-2.09-1.55h-20.55
				c-0.54,0-0.91,0.55-0.73,1.08l11.27,33.63C192.93,103.77,193.77,104.39,194.71,104.39z"/>
			<path class="st6" d="M197,86.26c0.26,1.29,1.12,2.33,1.91,2.33s1.22-1.04,0.96-2.33c-0.26-1.29-1.12-2.33-1.91-2.33
				S196.74,84.97,197,86.26z"/>
		</g>
		<g>
			<path class="st1" d="M241.65,85.77c2.55-4.8,0.73-10.76-4.07-13.32c-4.8-2.55-10.76-0.73-13.32,4.07
				c-2.23,4.19-1.12,9.27,2.39,12.19l-0.45,5.13l4-3.24C234.59,91.89,239.42,89.97,241.65,85.77z"/>
			<path class="st5" d="M238.74,77.17H227.7c-0.22,0-0.39,0.17-0.39,0.39v7.82c0,0.22,0.17,0.39,0.39,0.39h11.04
				c0.22,0,0.39-0.17,0.39-0.39v-7.82C239.13,77.35,238.96,77.17,238.74,77.17z M238.56,84.79l-3.32-3.32l3.32-3.32V84.79z
				 M238.15,77.75l-3.32,3.32l-1.61,1.61l-4.93-4.93H238.15z M227.89,78.15l3.32,3.32l-3.32,3.32V78.15z M228.29,85.2l3.32-3.32
				l1.61,1.61l1.61-1.61l3.32,3.32H228.29z"/>
		</g>
	</g>
	<g>
		<g>
			<polygon class="st1" points="403.08,176.85 387.45,165.11 403.08,153.37 404.38,155.1 391.05,165.11 404.38,175.12 			"/>
		</g>
		<circle class="st0" cx="389.25" cy="165.11" r="3.06"/>
		<path class="st0" d="M406.98,154.24c0,1.69-1.37,3.06-3.06,3.06s-3.06-1.37-3.06-3.06c0-1.69,1.37-3.06,3.06-3.06
			S406.98,152.55,406.98,154.24z"/>
		<circle class="st0" cx="403.92" cy="176.21" r="3.06"/>
	</g>
</g>
<g id="Background_Simple" class="st7">
	<g class="st8">
		<path class="st9" d="M145.42,329.14C119,307.32,39.66,245.66,66.69,178c28.17-70.5,85.28-60.57,153.13-22.89
			c63.36,35.18,75.19-43.42,160.89,4.17c72.57,40.29,79.7,178.07-44.94,217.73C260.11,401.1,175.27,353.8,145.42,329.14z"/>
		<path class="st10" d="M145.42,329.14C119,307.32,39.66,245.66,66.69,178c28.17-70.5,85.28-60.57,153.13-22.89
			c63.36,35.18,75.19-43.42,160.89,4.17c72.57,40.29,79.7,178.07-44.94,217.73C260.11,401.1,175.27,353.8,145.42,329.14z"/>
	</g>
</g>
<g id="Shadow">
	<ellipse id="_x3C_Path_x3E__1_" class="st3" cx="245.18" cy="412.39" rx="193.89" ry="11.32"/>
</g>
<g id="Device">
	<g>
		<g>
			<g>
				<path class="st11" d="M179.9,133.21h23.68l23.88,273h-23.68c-10.98,0-20.66-8.9-21.62-19.88l-20.41-233.24
					C160.8,142.11,168.92,133.21,179.9,133.21z"/>
				<g>
					<path class="st12" d="M165.23,160.59c-0.09-1.05-1.02-1.91-2.07-1.91c-1.05,0-1.83,0.85-1.74,1.91l1.6,18.29
						c0.09,1.05,1.02,1.91,2.07,1.91c1.05,0,1.83-0.85,1.74-1.91L165.23,160.59z"/>
					<path class="st13" d="M165.23,160.59c-0.09-1.05-1.02-1.91-2.07-1.91c-1.05,0-1.83,0.85-1.74,1.91l1.6,18.29
						c0.09,1.05,1.02,1.91,2.07,1.91c1.05,0,1.83-0.85,1.74-1.91L165.23,160.59z"/>
				</g>
			</g>
			<path class="st12" d="M208.63,406.21h97.59c10.98,0,19.1-8.9,18.14-19.88l-20.41-233.24c-0.96-10.98-10.64-19.88-21.62-19.88
				h-97.59c-10.98,0-19.1,8.9-18.14,19.88l20.41,233.24C187.97,397.31,197.65,406.21,208.63,406.21z"/>
			<g>
				<path class="st9" d="M185.14,137.77h25.37c1.66,0,3.17,1.23,3.53,2.88l0.17,0.79c0.87,4.02,4.55,7.04,8.61,7.04h24.11
					c4.06,0,7.22-3.02,7.38-7.04l0.03-0.79c0.07-1.65,1.36-2.88,3.02-2.88h25.37c8.46,0,15.92,6.86,16.66,15.32l20.41,233.24
					c0.74,8.46-5.52,15.32-13.98,15.32h-97.59c-8.46,0-15.92-6.86-16.66-15.32l-20.41-233.24
					C170.43,144.62,176.68,137.77,185.14,137.77z"/>
				<path class="st10" d="M185.14,137.77h25.37c1.66,0,3.17,1.23,3.53,2.88l0.17,0.79c0.87,4.02,4.55,7.04,8.61,7.04h24.11
					c4.06,0,7.22-3.02,7.38-7.04l0.03-0.79c0.07-1.65,1.36-2.88,3.02-2.88h25.37c8.46,0,15.92,6.86,16.66,15.32l20.41,233.24
					c0.74,8.46-5.52,15.32-13.98,15.32h-97.59c-8.46,0-15.92-6.86-16.66-15.32l-20.41-233.24
					C170.43,144.62,176.68,137.77,185.14,137.77z"/>
			</g>
			<g class="st14">
				<path d="M240.07,140.35c0.09,1.07,1.04,1.94,2.11,1.94c1.07,0,1.86-0.87,1.77-1.94c-0.09-1.07-1.04-1.94-2.11-1.94
					C240.76,138.41,239.97,139.28,240.07,140.35z"/>
				<path d="M226.15,138.41c0.77,0,5.88,0,6.65,0c1.07,0,2.01,0.87,2.11,1.94c0.09,1.07-0.7,1.94-1.77,1.94c-0.66,0-5.98,0-6.65,0
					c-1.07,0-2.01-0.87-2.11-1.94C224.29,139.28,225.08,138.41,226.15,138.41z"/>
			</g>
			<g class="st14">
				<polygon points="288.36,148.45 286.31,148.45 286.13,146.39 288.18,146.39 				"/>
				<polygon points="284.08,146.39 284.26,148.45 282.2,148.45 282.02,146.39 281.85,144.34 283.9,144.34 				"/>
				<polygon points="279.61,142.29 279.79,144.34 279.97,146.39 280.15,148.45 278.1,148.45 277.92,146.39 277.74,144.34 
					277.56,142.29 				"/>
			</g>
			<path class="st14" d="M182.34,142.43l0.53,6.02h9.03l-0.13-1.5h1l-0.26-3.01h-1l-0.13-1.5H182.34z M187.49,143.93h3.01l0.26,3.01
				h-3.01L187.49,143.93z"/>
		</g>
		<g class="st14">
			<path d="M226.93,394.91c19.55,0,39.11,0,58.66,0c1.78,0,1.54-2.76-0.24-2.76c-19.55,0-39.11,0-58.66,0
				C224.91,392.15,225.15,394.91,226.93,394.91L226.93,394.91z"/>
		</g>
	</g>
</g>
<g id="Screen">
	<g>
		<g>
			<g>
				<path class="st12" d="M355.48,237.35h-62.67c-3.95,0-6.88-3.2-6.53-7.16l3.38-38.61c0.35-3.95,3.83-7.16,7.78-7.16h62.67
					c3.95,0,6.88,3.2,6.53,7.16l-3.38,38.61C362.92,234.15,359.44,237.35,355.48,237.35z"/>
				<path class="st15" d="M355.48,237.35h-62.67c-3.95,0-6.88-3.2-6.53-7.16l3.38-38.61c0.35-3.95,3.83-7.16,7.78-7.16h62.67
					c3.95,0,6.88,3.2,6.53,7.16l-3.38,38.61C362.92,234.15,359.44,237.35,355.48,237.35z"/>
				<path class="st16" d="M355.24,234.5h-61.67c-2.58,0-4.49-2.09-4.27-4.67l2.96-33.87c0.23-2.58,2.5-4.67,5.08-4.67h61.67
					c2.58,0,4.49,2.09,4.27,4.67l-2.96,33.87C360.09,232.41,357.82,234.5,355.24,234.5z"/>
				<path class="st16" d="M296.41,187.9c-0.06,0.73-0.71,1.32-1.44,1.32c-0.73,0-1.27-0.59-1.21-1.32c0.06-0.73,0.71-1.32,1.44-1.32
					C295.94,186.58,296.48,187.17,296.41,187.9z"/>
				<path class="st16" d="M300.53,187.9c-0.06,0.73-0.71,1.32-1.44,1.32c-0.73,0-1.27-0.59-1.21-1.32c0.06-0.73,0.71-1.32,1.44-1.32
					C300.05,186.58,300.59,187.17,300.53,187.9z"/>
				<path class="st16" d="M304.65,187.9c-0.06,0.73-0.71,1.32-1.44,1.32c-0.73,0-1.27-0.59-1.21-1.32c0.06-0.73,0.71-1.32,1.44-1.32
					C304.17,186.58,304.71,187.17,304.65,187.9z"/>
				<polygon class="st17" points="321.47,224.92 299.28,224.92 301.39,200.87 323.57,200.87 				"/>
				<g>
					<g>
						<path class="st12" d="M353.16,203.54h-23.52c-0.74,0-1.28-0.6-1.22-1.34l0,0c0.06-0.74,0.72-1.34,1.45-1.34h23.52
							c0.74,0,1.28,0.6,1.22,1.34l0,0C354.55,202.94,353.9,203.54,353.16,203.54z"/>
						<path class="st12" d="M348.68,208.88h-19.51c-0.74,0-1.28-0.6-1.22-1.34l0,0c0.06-0.74,0.72-1.34,1.45-1.34h19.51
							c0.74,0,1.28,0.6,1.22,1.34l0,0C350.07,208.29,349.42,208.88,348.68,208.88z"/>
						<path class="st12" d="M349.82,214.23H328.7c-0.74,0-1.28-0.6-1.22-1.34l0,0c0.06-0.74,0.72-1.34,1.45-1.34h21.12
							c0.74,0,1.28,0.6,1.22,1.34l0,0C351.21,213.63,350.55,214.23,349.82,214.23z"/>
						<path class="st12" d="M346.94,219.58h-18.71c-0.74,0-1.28-0.6-1.22-1.34l0,0c0.06-0.74,0.72-1.34,1.45-1.34h18.71
							c0.74,0,1.28,0.6,1.22,1.34l0,0C348.33,218.98,347.68,219.58,346.94,219.58z"/>
						<path class="st12" d="M349.68,224.92h-21.92c-0.74,0-1.28-0.6-1.22-1.34l0,0c0.06-0.74,0.72-1.34,1.45-1.34h21.92
							c0.74,0,1.28,0.6,1.22,1.34l0,0C351.07,224.32,350.42,224.92,349.68,224.92z"/>
					</g>
					<g class="st18">
						<path class="st6" d="M353.16,203.54h-23.52c-0.74,0-1.28-0.6-1.22-1.34l0,0c0.06-0.74,0.72-1.34,1.45-1.34h23.52
							c0.74,0,1.28,0.6,1.22,1.34l0,0C354.55,202.94,353.9,203.54,353.16,203.54z"/>
						<path class="st6" d="M348.68,208.88h-19.51c-0.74,0-1.28-0.6-1.22-1.34l0,0c0.06-0.74,0.72-1.34,1.45-1.34h19.51
							c0.74,0,1.28,0.6,1.22,1.34l0,0C350.07,208.29,349.42,208.88,348.68,208.88z"/>
						<path class="st6" d="M349.82,214.23H328.7c-0.74,0-1.28-0.6-1.22-1.34l0,0c0.06-0.74,0.72-1.34,1.45-1.34h21.12
							c0.74,0,1.28,0.6,1.22,1.34l0,0C351.21,213.63,350.55,214.23,349.82,214.23z"/>
						<path class="st6" d="M346.94,219.58h-18.71c-0.74,0-1.28-0.6-1.22-1.34l0,0c0.06-0.74,0.72-1.34,1.45-1.34h18.71
							c0.74,0,1.28,0.6,1.22,1.34l0,0C348.33,218.98,347.68,219.58,346.94,219.58z"/>
						<path class="st6" d="M349.68,224.92h-21.92c-0.74,0-1.28-0.6-1.22-1.34l0,0c0.06-0.74,0.72-1.34,1.45-1.34h21.92
							c0.74,0,1.28,0.6,1.22,1.34l0,0C351.07,224.32,350.42,224.92,349.68,224.92z"/>
					</g>
				</g>
			</g>
			<path class="st12" d="M316.25,207L316.25,207c-1.6-1.6-4.2-1.6-5.8,0l-2.09,2.09l-2.09-2.09c-1.6-1.6-4.2-1.6-5.8,0
				c-1.6,1.6-1.6,4.2,0,5.8l7.88,7.88l7.88-7.88C317.85,211.2,317.85,208.6,316.25,207z"/>
		</g>
		<g>
			<g>
				<path class="st12" d="M306.7,181.15h-32.53c-2.05,0-3.57-1.66-3.39-3.72l1.75-20.04c0.18-2.05,1.99-3.72,4.04-3.72h32.53
					c2.05,0,3.57,1.66,3.39,3.72l-1.75,20.04C310.56,179.48,308.75,181.15,306.7,181.15z"/>
				<path class="st15" d="M306.7,181.15h-32.53c-2.05,0-3.57-1.66-3.39-3.72l1.75-20.04c0.18-2.05,1.99-3.72,4.04-3.72h32.53
					c2.05,0,3.57,1.66,3.39,3.72l-1.75,20.04C310.56,179.48,308.75,181.15,306.7,181.15z"/>
				<path class="st16" d="M306.57,179.67h-32.01c-1.34,0-2.33-1.09-2.21-2.43l1.54-17.58c0.12-1.34,1.3-2.43,2.64-2.43h32.01
					c1.34,0,2.33,1.09,2.21,2.43l-1.54,17.58C309.09,178.58,307.91,179.67,306.57,179.67z"/>
				<path class="st16" d="M276.04,155.48c-0.03,0.38-0.37,0.69-0.75,0.69s-0.66-0.31-0.63-0.69c0.03-0.38,0.37-0.69,0.75-0.69
					S276.07,155.1,276.04,155.48z"/>
				<path class="st16" d="M278.17,155.48c-0.03,0.38-0.37,0.69-0.75,0.69s-0.66-0.31-0.63-0.69c0.03-0.38,0.37-0.69,0.75-0.69
					C277.93,154.79,278.21,155.1,278.17,155.48z"/>
				<path class="st16" d="M280.31,155.48c-0.03,0.38-0.37,0.69-0.75,0.69s-0.66-0.31-0.63-0.69c0.03-0.38,0.37-0.69,0.75-0.69
					S280.34,155.1,280.31,155.48z"/>
			</g>
		</g>
	</g>
</g>
<g id="Instagram">
	<g>
		
			<ellipse transform="matrix(0.9239 -0.3827 0.3827 0.9239 -78.6779 163.895)" class="st12" cx="372.64" cy="279.72" rx="20.8" ry="20.8"/>
		
			<ellipse transform="matrix(0.9239 -0.3827 0.3827 0.9239 -78.6779 163.895)" class="st19" cx="372.64" cy="279.72" rx="20.8" ry="20.8"/>
		<g>
			<path class="st12" d="M382.29,274.83c-0.13-1.29-0.63-2.43-1.59-3.35c-1.01-0.96-2.24-1.39-3.6-1.46
				c-2.31-0.13-7.78-0.2-9.7,0.11c-2.2,0.36-3.64,1.64-4.24,3.81c-0.47,1.67-0.37,9.36-0.1,11.01c0.37,2.26,1.71,3.7,3.94,4.28
				c1.55,0.4,9.15,0.35,10.86,0.07c2.26-0.36,3.71-1.69,4.3-3.92C382.6,283.67,382.44,276.38,382.29,274.83z M380.48,284.63
				c-0.26,1.71-1.4,2.77-3.12,2.96c-1.58,0.17-8.65,0.27-10.12-0.14c-1.4-0.39-2.21-1.36-2.44-2.77c-0.22-1.35-0.28-8.09,0-9.9
				c0.26-1.7,1.4-2.76,3.11-2.95c1.74-0.19,7.99-0.22,9.66,0.04c1.71,0.26,2.77,1.4,2.96,3.13
				C380.7,276.61,380.75,282.9,380.48,284.63z M372.64,274.69c-2.78,0-5.03,2.25-5.03,5.03c0,2.77,2.25,5.02,5.02,5.02
				c2.78,0.01,5.04-2.24,5.04-5.02C377.67,276.94,375.42,274.69,372.64,274.69z M372.61,282.97c-1.77,0-3.22-1.47-3.22-3.27
				c0-1.79,1.46-3.24,3.26-3.24c1.79,0,3.24,1.46,3.24,3.26C375.89,281.53,374.43,282.97,372.61,282.97z M379.04,274.5
				c0,0.65-0.52,1.17-1.18,1.17c-0.66,0-1.17-0.52-1.18-1.17c0-0.66,0.52-1.19,1.19-1.18C378.53,273.32,379.04,273.85,379.04,274.5z
				"/>
		</g>
	</g>
</g>
<g id="Document">
	<g>
		<polygon class="st12" points="374.2,107.73 352.17,102.6 343.1,141.5 371.8,148.19 379.32,115.97 		"/>
		<polygon class="st20" points="374.2,107.73 352.17,102.6 343.1,141.5 371.8,148.19 379.32,115.97 		"/>
		<polygon class="st15" points="374.2,107.73 372.64,114.41 379.32,115.97 		"/>
		<g>
			<g>
				<path class="st12" d="M371.96,120.91l-16.94-3.95c-0.46-0.11-0.75-0.57-0.64-1.03l0,0c0.11-0.46,0.57-0.75,1.03-0.64l16.94,3.95
					c0.46,0.11,0.74,0.57,0.64,1.03l0,0C372.88,120.73,372.42,121.02,371.96,120.91z"/>
			</g>
			<g>
				<path class="st12" d="M368.03,123.51l-13.79-3.22c-0.46-0.11-0.74-0.57-0.64-1.03l0,0c0.11-0.46,0.57-0.75,1.03-0.64l13.79,3.22
					c0.46,0.11,0.75,0.57,0.64,1.03l0,0C368.95,123.33,368.49,123.61,368.03,123.51z"/>
			</g>
			<g>
				<path class="st12" d="M367.56,126.9l-14.09-3.29c-0.46-0.11-0.74-0.57-0.64-1.03l0,0c0.11-0.46,0.57-0.75,1.03-0.64l14.09,3.29
					c0.46,0.11,0.75,0.57,0.64,1.03l0,0C368.48,126.73,368.02,127.01,367.56,126.9z"/>
			</g>
		</g>
		<g>
			<g>
				<path class="st12" d="M369.63,130.9l-16.94-3.95c-0.46-0.11-0.74-0.57-0.64-1.03l0,0c0.11-0.46,0.57-0.75,1.03-0.64l16.94,3.95
					c0.46,0.11,0.75,0.57,0.64,1.03l0,0C370.55,130.72,370.09,131,369.63,130.9z"/>
			</g>
			<g>
				<path class="st12" d="M366.71,133.49l-13.79-3.22c-0.46-0.11-0.75-0.57-0.64-1.03l0,0c0.11-0.46,0.57-0.74,1.03-0.64l13.79,3.22
					c0.46,0.11,0.75,0.57,0.64,1.03l0,0C367.63,133.31,367.17,133.6,366.71,133.49z"/>
			</g>
			<g>
				<path class="st12" d="M365.23,136.89l-14.09-3.29c-0.46-0.11-0.74-0.57-0.64-1.03l0,0c0.11-0.46,0.57-0.74,1.03-0.64l14.09,3.29
					c0.46,0.11,0.75,0.57,0.64,1.03l0,0C366.15,136.71,365.69,136.99,365.23,136.89z"/>
			</g>
		</g>
	</g>
</g>
<g id="Twitter">
	<path class="st21" d="M293.33,109.15c-3.66-0.13-5.95-2.75-6.55-4.89c1.02,0.19,2.02,0.15,3.02-0.09c0.03-0.01,0.05-0.02,0.1-0.05
		c-1.98-0.46-3.51-1.52-4.57-3.23c-0.7-1.14-1.04-2.38-1.03-3.75c0.99,0.53,2.02,0.82,3.13,0.86c-1.49-1.07-2.49-2.48-2.9-4.27
		c-0.41-1.79-0.14-3.5,0.75-5.1c3.81,4.49,8.64,6.96,14.53,7.36c-0.04-0.28-0.08-0.52-0.11-0.77c-0.19-1.66,0.13-3.2,1.03-4.61
		c1.12-1.76,2.72-2.85,4.78-3.18c2.37-0.39,4.44,0.28,6.16,1.96c0.12,0.11,0.21,0.15,0.38,0.11c1.45-0.32,2.81-0.84,4.09-1.58
		c0.03-0.02,0.06-0.04,0.09-0.05c0,0,0.02,0,0.05,0c-0.56,1.64-1.57,2.9-3.01,3.83c1.36-0.15,2.67-0.51,3.92-1.06
		c0.01,0.01,0.02,0.02,0.03,0.03c-0.27,0.35-0.53,0.72-0.81,1.06c-0.75,0.92-1.6,1.73-2.56,2.43c-0.08,0.06-0.12,0.12-0.12,0.22
		c0.04,1.04,0,2.09-0.13,3.12c-0.27,2.19-0.88,4.28-1.81,6.27c-0.96,2.06-2.22,3.92-3.81,5.55c-2.68,2.77-5.92,4.56-9.68,5.39
		c-1.29,0.29-2.6,0.43-3.92,0.47c-4.06,0.12-7.82-0.89-11.27-3.02c-0.04-0.03-0.09-0.06-0.17-0.11c2.46,0.27,4.79-0.05,7.04-0.97
		C291.17,110.61,292.28,109.97,293.33,109.15z"/>
</g>
<g id="Hashtag">
	<g>
		<path class="st12" d="M149.2,94.63c-2.99-9.79-13.36-15.3-23.15-12.31c-9.79,2.99-15.3,13.36-12.31,23.15
			c2.61,8.55,10.85,13.83,19.41,13.05l6.24,7.43l1.01-9.65C147.95,112.16,151.82,103.18,149.2,94.63z"/>
		<path class="st6" d="M136.78,95.83l-0.84,4.82l3.53-0.75l-0.23,3.17l-3.89,0.83l-0.85,4.76l-3.18,0.68l0.85-4.76l-3.94,0.84
			l-0.85,4.76l-3.15,0.67l0.85-4.76l-3.54,0.75l0.2-3.16l3.92-0.83l0.87-4.82L123,98.76l0.23-3.17l3.89-0.83l0.85-4.76l3.15-0.67
			l-0.85,4.76l3.95-0.84l0.85-4.76l3.15-0.67l-0.85,4.76l3.56-0.76l-0.2,3.16L136.78,95.83z M133.63,96.5l-3.95,0.84l-0.87,4.82
			l3.95-0.84L133.63,96.5z"/>
	</g>
</g>
<g id="Photo">
	<g>
		<g>
			<g>
				<rect x="85.89" y="261.4" transform="matrix(0.9781 0.2079 -0.2079 0.9781 60.5973 -17.4832)" width="55.15" height="36.26"/>
				
					<rect x="85.89" y="261.4" transform="matrix(0.9781 0.2079 -0.2079 0.9781 60.5973 -17.4832)" class="st19" width="55.15" height="36.26"/>
			</g>
			<g>
				<polygon class="st12" points="104.61,279.32 85.05,292.02 117.31,298.88 				"/>
				<polygon class="st13" points="104.61,279.32 85.05,292.02 117.31,298.88 				"/>
				<polygon class="st12" points="136.12,302.88 125.92,272.17 104.11,296.08 				"/>
			</g>
			<path class="st16" d="M113.8,272.93c-0.38,1.79-2.14,2.93-3.92,2.55c-1.79-0.38-2.93-2.14-2.55-3.92
				c0.38-1.79,2.14-2.93,3.92-2.55C113.04,269.38,114.18,271.14,113.8,272.93z"/>
		</g>
		<g>
			<path class="st12" d="M137.44,304.18l-55.9-11.88l7.95-37.42l55.9,11.88L137.44,304.18z M83.91,290.76l51.99,11.05l7.12-33.51
				l-51.99-11.05L83.91,290.76z"/>
		</g>
	</g>
</g>
<g id="Facebook">
	<g>
		<g>
			
				<ellipse transform="matrix(0.1602 -0.9871 0.9871 0.1602 -136.9054 270.8533)" class="st12" cx="90.72" cy="215.88" rx="18.23" ry="18.23"/>
			
				<ellipse transform="matrix(0.1602 -0.9871 0.9871 0.1602 -136.9054 270.8533)" class="st19" cx="90.72" cy="215.88" rx="18.23" ry="18.23"/>
		</g>
		<path class="st21" d="M93.79,209.33c0.61-0.02,1.23,0,1.84-0.01c0.07,0,0.15,0,0.25,0v-3.19c-0.33-0.03-0.67-0.08-1.01-0.1
			c-0.63-0.03-1.26-0.06-1.89-0.04c-0.96,0.02-1.87,0.25-2.66,0.82c-0.91,0.65-1.41,1.57-1.6,2.66c-0.08,0.45-0.1,0.91-0.11,1.37
			c-0.02,0.72,0,1.43,0,2.15v0.27h-3.05v3.56h3.03v8.95h3.71v-8.94h3.02c0.16-1.19,0.31-2.36,0.46-3.58c-0.24,0-0.46,0-0.68,0
			c-0.86,0-2.83,0-2.83,0s0.01-1.77,0.03-2.53C92.33,209.68,92.95,209.36,93.79,209.33z"/>
	</g>
</g>
<g id="Character">
	<g>
		<path class="st11" d="M230.27,197c0,0,3.3-2.28,5.58,0.35c2.28,2.64,0.84,8.52,0.84,8.52l-5.31-6.44L230.27,197z"/>
		<g>
			<path class="st22" d="M302.41,232.47l-6.65-0.35c-1.29,5.49-2.6,11.17-4.39,16.15c-0.45,1.24-0.95,2.42-1.46,3.48
				c-0.51,1.04-1.1,1.98-1.57,2.45c-0.22,0.24-0.26,0.11-0.34,0.12c-0.34,0.05-1.3,0.08-2.34-0.05c-2.14-0.23-4.71-0.86-7.23-1.65
				c-2.55-0.79-5.15-1.72-7.73-2.75c-2.6-1-5.18-2.12-7.77-3.23c-2.57-1.11-5.2-2.35-7.64-3.49l-6.07,11.99
				c2.8,1.47,5.49,2.68,8.28,3.91c2.77,1.23,5.6,2.33,8.48,3.39c2.9,1.02,5.84,1.98,8.93,2.77c3.11,0.76,6.28,1.44,9.99,1.6
				c1.87,0.04,3.87,0.02,6.37-0.7c0.63-0.19,1.28-0.42,1.96-0.76c0.33-0.16,0.68-0.35,1.05-0.58c0.35-0.22,0.67-0.46,0.97-0.69
				c1.18-0.96,2-1.96,2.63-2.9c1.25-1.9,1.92-3.63,2.49-5.3c0.56-1.67,0.92-3.29,1.23-4.87c0.61-3.17,0.88-6.26,1-9.33
				C302.73,238.58,302.68,235.6,302.41,232.47z"/>
			<g>
				<path class="st12" d="M240.62,255.06c3.87,7.94,32.19,13.06,32.19,13.06l5.27-20.39c0,0-11.71-5.16-22.9-7
					C243.7,238.86,236.37,246.35,240.62,255.06z"/>
			</g>
			<g>
				<path class="st23" d="M295.74,232.46l1.76-11.46l8.39,6.17c0,0-2.06,10.37-6.21,9.13L295.74,232.46z"/>
				<polygon class="st23" points="303.73,214.1 309.14,221.85 305.88,227.17 297.49,221 				"/>
			</g>
			<path class="st14" d="M258.74,249.85l-4.05,1.45l-0.84,2.98l0.56,4.83l3.72,5.45c5.03,1.51,9.83,2.58,12.5,3.14
				C266.26,258.98,258.74,249.85,258.74,249.85z"/>
		</g>
		<g>
			<path class="st11" d="M220.64,316.98c0,0-0.39,32.67,29.24,25.9c28.24-6.45,19.33-38.08,19.33-38.08L220.64,316.98z"/>
			<g>
				<path class="st11" d="M249.87,339.14c-9.72-7.93-38.53-27.14-48.53-12.76c-11.17,16.06,14.36,55.28,56.83,40.58
					C265.04,364.58,271.04,356.41,249.87,339.14z"/>
			</g>
			<path class="st11" d="M285.93,316.98c41.33-7.37,43.68,5.13,36.57,15.73c-7.11,10.6-30.69,35.54-72.63,32.88
				C234.28,364.6,234.04,326.23,285.93,316.98z"/>
			<path class="st14" d="M255.91,342.87c0,0,2.21-4.99,5.12-8.48c2.9-3.48,3.26,6.56,16.02,0c12.76-6.56,21.7-13.57,31.58-16.18
				c9.87-2.61-7.6,15.22-7.6,15.22l-30.97,17.03L255.91,342.87z"/>
			<polygon class="st23" points="256.69,365.09 241.39,370.96 242.67,363.23 255.3,354.97 			"/>
			<path class="st11" d="M331.55,324.06c-1.25-8.79-15.58-12.3-27.58-2.87c-9.87,7.75-45.14,30.65-56.53,38.13l2.41,9.27
				c10.47-3.97,31.04-11.77,45.77-17.45C316.18,343.22,332.8,332.85,331.55,324.06z"/>
			<path class="st14" d="M248.08,337.72c-5.08-10.77-15.89-12.89-22.03-13.18C234.53,328.1,242.94,333.75,248.08,337.72z"/>
			<path class="st14" d="M266.49,362.26c9.54-3.63,20.36-7.75,29.13-11.13c0.33-0.13,0.66-0.26,1-0.39l-25.45-6.76
				c-8.62,5.76-16.68,11.07-21.29,14.1L266.49,362.26z"/>
			<path class="st14" d="M205.34,343.61c0,0,33.14,28.08,45.27,10.08l-40.05-15.24l-4.5-2.03L205.34,343.61z"/>
			<polygon class="st23" points="290.69,362.84 306.1,364.83 304.48,356.31 288.69,352.2 			"/>
			<path class="st11" d="M301.07,354.02c-7.56-1.95-24.68-6.25-35.26-10.38c-14.27-5.57-50.64-20.66-62.63-13.6
				c-8.3,4.89,0.29,12.13,0.29,12.13s3.88,6.7,34.28,13.1c21.73,4.57,48.6,7.98,62.16,9.55L301.07,354.02z"/>
			<path class="st12" d="M304.92,365.1l-2.3-9.49c-0.09-0.36,0.09-0.73,0.42-0.89l7.3-3.59c0.65-0.32,1.43-0.06,1.75,0.58
				c0.04,0.08,0.07,0.17,0.1,0.26c0.77,3.43,1.32,6.52,2.36,10.78c1.22,5.02,1.51,3.6,3.03,9.49c0.91,3.55-2.98,5.18-3.54,3.72
				c-2.55-6.7-4.81-6.91-7.93-8.97C305.49,366.53,305.07,365.85,304.92,365.1z"/>
			<path class="st12" d="M243.92,370.14l1.68-9.64c0.06-0.36-0.13-0.72-0.47-0.86l-7.54-3.11c-0.67-0.28-1.43,0.03-1.72,0.7
				c-0.04,0.09-0.06,0.17-0.08,0.27c-0.54,3.49-0.89,6.61-1.65,10.94c-0.89,5.11-1.28,3.7-2.41,9.69c-0.68,3.61,3.32,4.99,3.79,3.49
				c2.1-6.87,4.35-7.23,7.34-9.5C243.44,371.6,243.82,370.9,243.92,370.14z"/>
		</g>
		<g>
			<path class="st12" d="M217.74,299.25c1.52,8.72,2.49,16.62,3.22,22.3c8.26-0.36,39.25-1.97,50.46-6.23
				c-1.6-46.99-16.54-74.94-16.54-74.94s-5.52-0.37-11.84,0.08c-0.83,0.05-1.68,0.14-2.53,0.23c-5.53,0.61-14.43,2.61-20.54,4.16
				c-1.28,0.33-2.58,0.69-3.84,1.06c-6.4,1.92-11.95,4.26-11.95,4.26c4.04,9.73,7.08,19.79,9.44,29.32
				C215.34,286.46,216.67,293.16,217.74,299.25z"/>
		</g>
		<path class="st23" d="M217.55,221.3c2.57,6.35,6.19,18.2,2.41,23.55c4.06,2.81,9.65,4.76,17.05,3.1c5.66-1.28,5.18-5.31,3.49-7.26
			c-7.71-0.27-8.57-5.78-8.27-11.17L217.55,221.3z"/>
		<g>
			<path class="st6" d="M237.16,247.91c0,0-1.59,3.19-3.56,6.42c-4.14-1.2-14-4.65-14.69-9.64c0.18-1.53,1.9-2.8,1.9-2.8
				S227.43,245.97,237.16,247.91z"/>
		</g>
		<g>
			<path class="st6" d="M237.16,247.91c0,0,3.43,1.76,5.99,4.38c2.29-2.44-1.16-11.26-2.39-12.05c-2.46-0.91-3.9-0.45-3.9-0.45
				S241.22,245.94,237.16,247.91z"/>
		</g>
		<path class="st14" d="M223.54,224.65l8.69,4.86c-0.07,1.28-0.08,2.56,0.07,3.78c-2.89,0.16-7.36-2.15-8.22-5.03
			C223.64,226.81,223.43,225.39,223.54,224.65z"/>
		<path class="st23" d="M213.19,213.45c3.36,8.49,4.89,13.63,10.71,16.61c8.76,4.48,18.14-3.09,17.38-12.44
			c-0.68-8.41-6.06-20.88-15.65-21.48C216.18,195.55,209.83,204.96,213.19,213.45z"/>
		<path class="st11" d="M227.1,211.45c0.23,0.71,0.79,1.15,1.25,1c0.46-0.16,0.65-0.85,0.42-1.56c-0.23-0.71-0.79-1.15-1.25-1
			C227.06,210.04,226.87,210.74,227.1,211.45z"/>
		<path class="st11" d="M235.06,208.76c0.23,0.71,0.79,1.15,1.25,1c0.46-0.16,0.65-0.85,0.42-1.56c-0.23-0.71-0.79-1.15-1.25-1
			C235.02,207.36,234.83,208.06,235.06,208.76z"/>
		<path class="st24" d="M232.65,209.97c0,0,2.92,3.37,5.32,4.67c-0.87,1.52-3.16,1.7-3.16,1.7L232.65,209.97z"/>
		<path class="st11" d="M231.91,220.3c0.3-0.06,0.61-0.14,0.94-0.25c0.11-0.04,0.18-0.16,0.14-0.28c-0.04-0.12-0.16-0.18-0.27-0.14
			c-3.1,1.04-5.24-0.63-5.26-0.65c-0.09-0.08-0.23-0.06-0.31,0.04c-0.08,0.1-0.06,0.23,0.03,0.31
			C227.26,219.4,229.11,220.85,231.91,220.3z"/>
		<path class="st11" d="M223.81,209.7c0.15-0.03,0.28-0.14,0.33-0.29c0.63-1.85,2.18-2.27,2.2-2.28c0.23-0.06,0.38-0.3,0.32-0.53
			c-0.06-0.23-0.3-0.37-0.53-0.31c-0.08,0.02-2.03,0.55-2.81,2.85c-0.08,0.23,0.04,0.48,0.27,0.55
			C223.66,209.71,223.74,209.71,223.81,209.7z"/>
		<path class="st11" d="M237.6,204.86c0.08-0.02,0.16-0.05,0.22-0.12c0.17-0.17,0.18-0.45,0.01-0.62c-1.68-1.73-3.64-1.34-3.73-1.33
			c-0.24,0.05-0.39,0.28-0.34,0.52c0.05,0.24,0.27,0.39,0.51,0.34c0.08-0.02,1.6-0.3,2.95,1.09
			C237.31,204.85,237.46,204.89,237.6,204.86z"/>
		<path class="st14" d="M209.68,265.39c1.5,4.76,2.8,9.49,3.94,14.1c1.25,5.08,2.3,10.01,3.19,14.67c1.64-9.43,0.64-30.4,0.64-30.4
			l-5.17-4.99C212.28,258.78,210.9,261.27,209.68,265.39z"/>
		<g>
			<path class="st22" d="M234.1,299.88l-4.64,0.52c-1.56,0.16-3.12,0.27-4.66,0.4c-3.09,0.22-6.15,0.36-9.05,0.27
				c-1.45-0.04-2.86-0.16-4.14-0.36c-1.28-0.18-2.46-0.48-3.2-0.84c-0.37-0.17-0.39-0.27-0.38-0.25c0.01,0.01,0-0.03,0-0.04
				l-0.04-0.15c-0.03-0.12-0.08-0.3-0.12-0.51c-0.08-0.41-0.15-0.95-0.2-1.53c-0.17-2.37-0.02-5.33,0.32-8.26
				c0.35-2.95,0.8-5.98,1.37-9.01c1.1-6.04,2.5-12.27,3.95-18.21l-13.48-3.64c-0.95,3.31-1.66,6.47-2.38,9.73
				c-0.72,3.24-1.29,6.52-1.82,9.84c-0.48,3.32-0.91,6.68-1.11,10.15c-0.17,3.49-0.3,7.01,0.31,11.04c0.16,1.01,0.37,2.07,0.71,3.21
				c0.17,0.57,0.37,1.16,0.63,1.79c0.13,0.31,0.27,0.62,0.44,0.96l0.26,0.5l0.35,0.59c0.98,1.56,2.31,2.74,3.58,3.56
				c1.28,0.81,2.52,1.29,3.68,1.65c2.32,0.68,4.35,0.84,6.28,0.9c1.93,0.03,3.75-0.11,5.52-0.31c7.06-0.89,13.37-2.8,19.68-5.35
				L234.1,299.88z"/>
			<g>
				<path class="st12" d="M201.7,251.52c-7.22,5.08-9.61,31.31-9.61,31.31l22.42,2.72c0,0,2.73-11.65,2.98-23.07
					C217.76,250.05,210.45,245.36,201.7,251.52z"/>
			</g>
			<path class="st23" d="M231.82,300.17l6.57-6.64l4.09,11.09c0,0-6.84,4.4-9.56,0.99L231.82,300.17z"/>
			<polygon class="st23" points="245.98,292.55 248.94,301.87 242.48,304.62 238.39,293.53 			"/>
		</g>
		<path class="st11" d="M218.91,221l0.58-0.1c1.54-0.27,2.14-2.12,1.08-3.27c-1.26-1.38-2.5-3.29-2.82-5.7
			c-0.7-5.32,2.19-6.06,1.81-9.7c0,0,7.24-0.95,11.83-4.11c0,0,4.51-6.52,0.9-9.6c-3.04-2.59-6.69,0.93-6.69,0.93
			s-1.56-4.76-5.29-3.73c-3.87,1.06-5.26,6.14-5.26,6.14s-3.6-4-6.31-1.95c-2.71,2.05-1.75,7.22-1.75,7.22s-5.62,0.16-5.8,3.42
			s3.17,6.16,3.17,6.16s-3.36,3.14-2.43,5.77c0.93,2.63,3.98,2.89,3.98,2.89s-2.12,4.48-0.62,5.93c1.49,1.45,4.39,1.08,4.39,1.08
			s0.09,4.29,3.54,5.5c2.47,0.87,4.15-0.72,4.15-0.72s1.7,2.49,2.77,1.81S218.91,221,218.91,221z"/>
		<path class="st12" d="M210.68,225.76c1.97-2.64,8.15-10.56,11.81-11.28c0,0-1.56-1.25-2.41-7.15c0,0-1.65,3.13-3.76,5.29
			c-3.31,3.38-6.67,7.71-8.07,9.78C208.25,222.4,208.72,223.89,210.68,225.76z"/>
		<path class="st19" d="M210.68,225.76c1.97-2.64,8.15-10.56,11.81-11.28c0,0-1.56-1.25-2.41-7.15c0,0-1.65,3.13-3.76,5.29
			c-3.31,3.38-6.67,7.71-8.07,9.78C208.25,222.4,208.72,223.89,210.68,225.76z"/>
		<path class="st23" d="M212.2,221.76c1.42,2,3.63,3.15,5.63,3.45c3,0.44,4.15-2.36,3.01-5c-1.02-2.38-3.82-5.49-6.69-4.71
			C211.33,216.25,210.58,219.47,212.2,221.76z"/>
		<path class="st12" d="M223.01,215.37c0,0,6.53,2.69,11.66-2.22c0,0,5.34,1.44,6.96-1.46l-1.62-0.52l-16.24,3.55L223.01,215.37z"/>
		<g>
			<path class="st12" d="M239.17,201.01l-17.53,3.66c-0.63,0.13-1.18,0.51-1.53,1.05l-0.42,0.64c-0.35,0.54-0.48,1.19-0.34,1.82
				l1.23,5.89c0.27,1.31,1.56,2.15,2.87,1.88l17.53-3.66c0.63-0.13,1.18-0.51,1.53-1.05l0.42-0.64c0.35-0.54,0.48-1.19,0.34-1.82
				l-1.23-5.89C241.76,201.58,240.48,200.74,239.17,201.01z"/>
			<path class="st13" d="M239.17,201.01l-17.53,3.66c-0.63,0.13-1.18,0.51-1.53,1.05l-0.42,0.64c-0.35,0.54-0.48,1.19-0.34,1.82
				l1.23,5.89c0.27,1.31,1.56,2.15,2.87,1.88l17.53-3.66c0.63-0.13,1.18-0.51,1.53-1.05l0.42-0.64c0.35-0.54,0.48-1.19,0.34-1.82
				l-1.23-5.89C241.76,201.58,240.48,200.74,239.17,201.01z"/>
			<path class="st25" d="M240.77,210.72l-14.81,3.09c-1.33,0.28-2.63-0.57-2.9-1.9l-0.93-4.44c-0.28-1.33,0.57-2.63,1.9-2.9
				l14.81-3.09c1.33-0.28,2.63,0.57,2.9,1.9l0.93,4.44C242.95,209.15,242.1,210.45,240.77,210.72z"/>
		</g>
	</g>
</g>
</svg>
