<?xml version="1.0" encoding="utf-8"?>
<!-- Generator: Adobe Illustrator 27.5.0, SVG Export Plug-In . SVG Version: 6.00 Build 0)  -->
<svg version="1.1" xmlns="http://www.w3.org/2000/svg" xmlns:xlink="http://www.w3.org/1999/xlink" x="0px" y="0px"
	 viewBox="0 0 500 500" style="enable-background:new 0 0 500 500;" xml:space="preserve">
<style type="text/css">
	.st0{fill:#FAF3FF;}
	.st1{fill:#E3BFF7;}
	.st2{fill:#FFFFFF;}
	.st3{fill:#F2D9FF;}
	.st4{fill:#FFCD42;}
	.st5{fill:#663012;}
	.st6{fill:none;stroke:#E3BFF7;stroke-width:1.2;stroke-miterlimit:10;stroke-dasharray:4.4627,4.4631;}
	.st7{fill:#FF3374;}
	.st8{fill:#A48FB0;}
	.st9{fill:#D4D3E7;}
	.st10{fill:#000964;}
	.st11{fill:#000540;}
	.st12{fill:#008DEE;}
	.st13{fill:#7D6D86;}
	.st14{fill:#FF9B73;stroke:#EF714B;stroke-width:0.6908;stroke-miterlimit:10;}
	.st15{opacity:0.5;fill:#FF9B73;}
	.st16{fill:#004097;}
	.st17{fill:#F2F3F3;}
	.st18{fill:#513860;}
	.st19{fill:#2B133A;}
	.st20{fill:#FF9B73;stroke:#EF714B;stroke-width:0.6908;stroke-linejoin:round;stroke-miterlimit:10;}
	.st21{fill:#FF9B73;stroke:#EF714B;stroke-width:0.6908;stroke-linecap:round;stroke-miterlimit:10;}
	.st22{fill:#BC4A48;}
	.st23{fill:none;stroke:#893530;stroke-width:0.6594;stroke-linecap:round;stroke-miterlimit:10;}
	.st24{fill:#FF9B73;stroke:#EF714B;stroke-width:0.7042;stroke-linecap:round;stroke-linejoin:round;stroke-miterlimit:10;}
	.st25{fill:#FF9B73;}
	.st26{fill:#EF714B;}
	.st27{fill:#E5E7E8;}
	.st28{fill:#FF9B73;stroke:#EF714B;stroke-width:0.8151;stroke-linecap:round;stroke-linejoin:round;stroke-miterlimit:10;}
	.st29{opacity:0.5;}
	.st30{fill:#E5173A;}
	.st31{fill:#FF9CC0;}
	.st32{fill:#FFAE91;stroke:#FF8D6E;stroke-width:0.4898;stroke-linejoin:round;stroke-miterlimit:10;}
	.st33{fill:#FF8D6E;}
	.st34{fill:#FFAE91;stroke:#FF8D6E;stroke-width:0.5213;stroke-linejoin:round;stroke-miterlimit:10;}
	.st35{fill:#FFAE91;stroke:#FF8D6E;stroke-width:0.519;stroke-linejoin:round;stroke-miterlimit:10;}
	.st36{fill:#FFAE91;}
	.st37{fill:#774A33;}
	.st38{fill:#FFAE91;stroke:#FF8D6E;stroke-width:0.7347;stroke-linejoin:round;stroke-miterlimit:10;}
	.st39{fill:#893530;}
	.st40{fill:none;stroke:#EF714B;stroke-width:0.8622;stroke-linecap:round;stroke-miterlimit:10;}
	.st41{fill:#C1272D;}
	.st42{fill:#FFAE91;stroke:#FF8D6E;stroke-width:0.7486;stroke-linecap:round;stroke-linejoin:round;stroke-miterlimit:10;}
	.st43{fill:none;stroke:#FF8D6E;stroke-width:0.7486;stroke-linecap:round;stroke-linejoin:round;stroke-miterlimit:10;}
</style>
<g id="BACKGROUND">
</g>
<g id="OBJECTS">
	<g>
		<g>
			<path class="st0" d="M81,418.54c2.66,2.01,5.37,4.08,8.13,6.17c27.86,0,55.72,0,83.58,0c54.28,0,108.57,0,162.85,0
				c23.36,0,46.72,0,70.07,0c8.34,0,16.67,0,25.01,0c3.53,0,8.76,0.84,11.98-0.58c6.72-2.95,11.67-14.65,15.11-20.67
				c11.33-19.85,18.74-41.94,21.56-64.62c1.3-10.44,1.29-22.11-5.5-30.14c-6.54-7.74-17.68-9.9-27.8-9.26
				c-18.14,1.16-35.18,9.67-49.48,20.89c-14.3,11.22-26.24,25.1-38.27,38.73c-8.89,10.07-19.7,20.88-33.13,20.47
				c-22.44-0.7-26.42-26.62-22.62-43.77c2.37-10.7,6.36-21.21,6.39-32.17c0.03-10.96-5.23-22.99-15.6-26.53
				c-10.22-3.48-21.52,2.53-28.52,10.75c-7,8.22-11.11,18.47-17.12,27.44c-6,8.97-15.05,17.15-25.84,17.35
				c-9.96,0.19-18.7-6.39-25.93-13.23c-23.95-22.67-41.39-52.15-49.71-84.05c-4.99-19.11-9.03-42.1-27-50.29
				c-16.92-7.72-37.8,3.86-46.06,20.53c-8.25,16.67-6.84,36.41-3.43,54.7c1.51,8.08,3.37,16.34,1.95,24.44
				c-1.42,8.1-7.1,16.11-15.23,17.35c-7.01,1.07-13.88-3-20.96-2.77c-10.35,0.33-18.51,10.16-20.1,20.4s1.92,20.57,6.29,29.96
				C34.67,377.72,56.55,400.04,81,418.54z"/>
			<g>
				<path class="st1" d="M154.82,420.71c12.76-6.75,22.72-18.8,27.24-32.59c4.23-12.92,3.84-27.09-0.24-39.99
					c-2.45-7.74-7.28-26.73-18.09-25.94c-6.31,0.46-9.81,7.46-11.36,13.6c-1.55,6.13-3,13.24-8.53,16.31
					c-5.79-3.78-7.96-11.37-7.65-18.28c0.3-6.91,2.58-13.56,3.69-20.39c1.11-6.82,0.89-14.37-3.23-19.93
					c-4.12-5.56-13.16-7.71-18.06-2.83c-3.56,3.54-4.52,9.96-9.88,10.79c-2.46,0.38-4.89-0.72-6.56-2.57
					c-3.66-4.06-3.76-9.41-5.14-14.32c-1.11-3.94-3.13-7.58-5.79-10.69c-7.58-8.84-22.2-1.4-19.61,9.95
					c0.93,4.06,2.7,7.91,5.32,11.13c3.22,3.96,7.53,7.13,8.73,12.46c0.55,2.43,0.05,5.04-1.69,6.83c-3.77,3.9-9.57,0.98-14.52,1.84
					c-6.81,1.19-10.27,9.82-8.11,16.38c2.17,6.57,8.2,11.1,14.42,14.13c6.22,3.03,12.97,5.01,18.78,8.75
					c5.82,3.74,10.77,9.89,10.52,16.8c-5.7,2.75-12.34-0.17-18.25-2.44c-5.91-2.27-13.65-3.45-17.66,1.44
					c-6.24,7.59,3.34,18.83,7.62,24.92c6.41,9.13,14.64,17.08,24.4,22.57c13.11,7.37,29.06,10.08,43.55,6.08
					C148.24,423.77,151.62,422.41,154.82,420.71z"/>
				<g>
					<g>
						<path class="st2" d="M86.4,288.93c9.31,16.86,17.83,34.25,26.58,51.42c8.75,17.18,17.33,34.45,25.5,51.91
							c4.59,9.81,9.06,19.68,13.41,29.6c0.97,2.2,4.21,0.3,3.24-1.89c-15.56-35.24-32.41-69.99-51.72-103.34
							c-5.43-9.39-11.28-18.49-16.91-27.75C86.46,288.81,86.36,288.87,86.4,288.93L86.4,288.93z"/>
					</g>
				</g>
				<g>
					<g>
						<path class="st2" d="M83.87,330.71c10.35,5.67,21.07,10.35,31.96,14.94c1.52,0.64,2.66-2.03,1.13-2.68
							c-10.86-4.64-21.68-9.1-32.94-12.6C83.81,330.3,83.68,330.61,83.87,330.71L83.87,330.71z"/>
					</g>
				</g>
				<g>
					<g>
						<path class="st2" d="M127.45,311.92c-4.29,12.52-7.2,25.5-8.72,38.66c-0.16,1.37,1.97,1.34,2.14,0
							c1.62-12.98,3.84-25.86,6.68-38.63C127.57,311.88,127.47,311.85,127.45,311.92L127.45,311.92z"/>
					</g>
				</g>
				<g>
					<g>
						<path class="st2" d="M104.22,389.2c6.84,4.17,13.9,7.7,21.47,10.39c3.72,1.32,7.49,2.51,11.29,3.6
							c2.04,0.59,4.1,1.13,6.16,1.65c1.52,0.38,2.79,0.81,4.25,0.08c0.3-0.15,0.45-0.65,0.24-0.92c-0.99-1.3-2.14-1.47-3.75-1.86
							c-1.77-0.43-3.54-0.88-5.3-1.34c-3.82-1-7.61-2.1-11.36-3.33c-7.67-2.52-15.38-5.32-22.6-8.95
							C104.16,388.28,103.78,388.93,104.22,389.2L104.22,389.2z"/>
					</g>
				</g>
				<g>
					<g>
						<path class="st2" d="M164.43,352.34c-4.55,7.39-8.39,15.36-12.19,23.16c-1.88,3.86-3.65,7.77-5.45,11.67
							c-1.61,3.51-4.06,7.38-4.27,11.3c-0.06,1.01,1.26,1.44,1.93,0.8c2.85-2.73,4.17-7.15,5.78-10.67
							c1.82-3.98,3.68-7.94,5.39-11.97c3.34-7.89,6.87-15.85,9.48-24.01C165.22,352.22,164.64,352,164.43,352.34L164.43,352.34z"/>
					</g>
				</g>
				<g>
					<g>
						<path class="st2" d="M94.87,317.55c3.75,2.81,7.42,5.71,11.49,8.06c0.85,0.49,1.53-0.74,0.75-1.29
							c-3.81-2.71-7.97-4.84-12.07-7.07C94.85,317.14,94.69,317.42,94.87,317.55L94.87,317.55z"/>
					</g>
				</g>
				<g>
					<g>
						<path class="st2" d="M104.34,307.41c-0.38,2.1-0.94,4.16-1.36,6.26c-0.32,1.63-0.97,3.39-0.4,5c0.14,0.41,0.61,0.44,0.86,0.11
							c1.02-1.36,0.94-3.25,1.14-4.9c0.25-2.12,0.35-4.24,0.63-6.36C105.27,307.04,104.42,306.92,104.34,307.41L104.34,307.41z"/>
					</g>
				</g>
				<g>
					<g>
						<path class="st2" d="M117.69,367.02c2.63,1.67,5.1,3.62,7.61,5.45c2.23,1.63,4.49,3.77,7.13,4.68
							c0.42,0.14,0.77-0.37,0.56-0.73c-1.44-2.44-4.35-4.17-6.72-5.6c-2.71-1.63-5.59-2.78-8.51-3.96
							C117.67,366.82,117.61,366.97,117.69,367.02L117.69,367.02z"/>
					</g>
				</g>
				<g>
					<g>
						<path class="st2" d="M131.84,349.2c-0.88,3.13-1.75,6.2-2.37,9.4c-0.5,2.6-1.37,5.51-0.86,8.15c0.11,0.55,0.92,0.62,1.18,0.15
							c1.31-2.34,1.38-5.4,1.7-8.03c0.39-3.23,0.53-6.39,0.66-9.63C132.17,349.06,131.89,349.03,131.84,349.2L131.84,349.2z"/>
					</g>
				</g>
			</g>
			<g>
				<path class="st1" d="M291.5,423.78h94.56c1.48-1.78,2.89-3.61,4.21-5.5c4.28-6.1,13.85-17.33,7.62-24.92
					c-4.02-4.89-11.76-3.71-17.66-1.44c-5.91,2.27-12.55,5.19-18.25,2.44c-0.25-6.91,4.7-13.06,10.52-16.8
					c5.82-3.74,12.57-5.72,18.78-8.75c6.22-3.03,12.25-7.56,14.42-14.13c2.17-6.57-1.29-15.2-8.11-16.38
					c-4.95-0.86-10.75,2.06-14.52-1.84c-1.73-1.79-2.23-4.4-1.69-6.84c1.2-5.33,5.51-8.5,8.73-12.46c2.62-3.23,4.4-7.07,5.32-11.13
					c2.59-11.35-12.03-18.79-19.61-9.95c-2.66,3.1-4.68,6.75-5.79,10.69c-1.38,4.91-1.48,10.26-5.14,14.32
					c-1.67,1.85-4.09,2.95-6.56,2.57c-5.36-0.83-6.32-7.25-9.88-10.79c-4.9-4.88-13.94-2.73-18.06,2.83
					c-4.12,5.56-4.34,13.1-3.23,19.93c1.11,6.82,3.39,13.48,3.69,20.39c0.3,6.91-1.86,14.5-7.65,18.28
					c-5.53-3.07-6.98-10.18-8.53-16.31c-1.55-6.13-5.05-13.14-11.36-13.6c-10.81-0.79-15.64,18.2-18.09,25.94
					c-4.08,12.9-4.47,27.08-0.24,39.99C286.55,415.06,288.76,419.59,291.5,423.78z"/>
				<g>
					<g>
						<path class="st2" d="M379.32,310.34c-16.64,27.81-31.42,56.66-45.55,85.81c-4.09,8.45-8.14,16.93-12.16,25.42
							c-0.82,1.72,1.75,3.24,2.57,1.5c13.9-29.3,28.02-58.52,43.72-86.91c4.53-8.18,9.19-16.29,13.99-24.32
							C382.88,310.2,380.3,308.7,379.32,310.34L379.32,310.34z"/>
					</g>
				</g>
				<g>
					<g>
						<path class="st2" d="M383.05,352.56c-11.26,3.5-22.08,7.96-32.94,12.6c-1.51,0.65-0.4,3.33,1.13,2.68
							c10.88-4.59,21.61-9.27,31.96-14.94C383.37,352.8,383.25,352.5,383.05,352.56L383.05,352.56z"/>
					</g>
				</g>
				<g>
					<g>
						<path class="st2" d="M339.5,334.14c2.84,12.77,5.06,25.65,6.68,38.63c0.17,1.34,2.3,1.37,2.14,0
							c-1.52-13.16-4.43-26.13-8.72-38.66C339.58,334.05,339.49,334.07,339.5,334.14L339.5,334.14z"/>
					</g>
				</g>
				<g>
					<g>
						<path class="st2" d="M361.89,409.76c-8.5,4.71-17.51,8.3-26.78,11.19c-1.83,0.57-1.05,3.45,0.79,2.88
							c9.51-2.96,18.77-6.65,27.49-11.49C365.07,411.4,363.57,408.83,361.89,409.76L361.89,409.76z"/>
					</g>
				</g>
				<g>
					<g>
						<path class="st2" d="M301.96,374.82c2.61,8.17,6.14,16.13,9.48,24.01c1.64,3.88,3.43,7.69,5.18,11.52
							c1.67,3.65,3.04,8.29,5.98,11.12c0.67,0.64,1.98,0.21,1.93-0.8c-0.21-3.79-2.51-7.47-4.07-10.85
							c-1.86-4.05-3.7-8.11-5.66-12.12c-3.8-7.8-7.64-15.76-12.19-23.16C302.42,374.2,301.84,374.41,301.96,374.82L301.96,374.82z"
							/>
					</g>
				</g>
				<g>
					<g>
						<path class="st2" d="M372.01,339.44c-4.1,2.23-8.25,4.36-12.07,7.07c-0.77,0.55-0.09,1.78,0.75,1.29
							c4.07-2.35,7.74-5.25,11.49-8.06C372.36,339.61,372.21,339.33,372.01,339.44L372.01,339.44z"/>
					</g>
				</g>
				<g>
					<g>
						<path class="st2" d="M361.86,329.72c0.28,2.11,0.38,4.24,0.63,6.36c0.19,1.64,0.11,3.54,1.14,4.9
							c0.24,0.33,0.72,0.29,0.86-0.11c0.56-1.61-0.08-3.37-0.4-5c-0.41-2.1-0.97-4.15-1.35-6.26
							C362.63,329.12,361.79,329.22,361.86,329.72L361.86,329.72z"/>
					</g>
				</g>
				<g>
					<g>
						<path class="st2" d="M349.29,389.06c-2.91,1.19-5.8,2.33-8.51,3.96c-2.38,1.43-5.29,3.16-6.72,5.6
							c-0.21,0.36,0.14,0.88,0.56,0.73c2.63-0.91,4.9-3.05,7.13-4.68c2.51-1.84,4.99-3.78,7.61-5.45
							C349.44,389.17,349.39,389.02,349.29,389.06L349.29,389.06z"/>
					</g>
				</g>
				<g>
					<g>
						<path class="st2" d="M334.89,371.43c0.14,3.24,0.27,6.4,0.66,9.63c0.32,2.63,0.39,5.69,1.7,8.03c0.26,0.46,1.07,0.4,1.18-0.15
							c0.52-2.64-0.35-5.54-0.86-8.15c-0.62-3.2-1.49-6.26-2.37-9.4C335.16,371.22,334.89,371.25,334.89,371.43L334.89,371.43z"/>
					</g>
				</g>
			</g>
			<g>
				<g>
					<path class="st3" d="M199.85,263.99c-6,9.62-6.82,18.28-6.91,19.68c-0.12,1.83-0.37,3.11,1.5,2.09
						c7.08-3.85,12.34-10.33,16.15-17.31c1.97-3.62,3.92-13.28,2.79-17.05C213.39,251.44,203.36,258.36,199.85,263.99z"/>
				</g>
				<g>
					<path class="st3" d="M191.18,243.32c-3.42,9.75-2.42,17.62-2.22,18.88c0.26,1.65,0.29,2.84,1.75,1.56
						c5.53-4.84,8.92-11.64,10.91-18.61c1.03-3.62,0.84-12.59-0.91-15.72C200.73,229.47,193.18,237.62,191.18,243.32z"/>
				</g>
				<g>
					<path class="st3" d="M183.69,227.13c-2.63,7.5-1.86,13.55-1.71,14.51c0.2,1.27,0.22,2.18,1.35,1.2
						c4.25-3.72,6.86-8.95,8.39-14.31c0.79-2.78,0.64-9.68-0.7-12.09C191.03,216.47,185.23,222.74,183.69,227.13z"/>
				</g>
				<g>
					<path class="st3" d="M172.2,231.47c6.46,4.63,9.3,10.03,9.73,10.9c0.56,1.15,1.07,1.92-0.41,1.76
						c-5.62-0.6-10.75-3.39-15.08-6.91c-2.25-1.82-6.09-7.56-6.36-10.3C160.07,226.97,168.42,228.77,172.2,231.47z"/>
				</g>
				<g>
					<path class="st3" d="M175.44,248.29c8.4,6.02,12.1,13.04,12.65,14.18c0.73,1.5,1.39,2.49-0.54,2.29
						c-7.3-0.79-13.99-4.41-19.62-8.98c-2.92-2.37-7.92-9.83-8.28-13.39C159.67,242.42,170.53,244.77,175.44,248.29z"/>
				</g>
				<g>
					<path class="st3" d="M204.62,286.46c-6,9.62-6.82,18.28-6.91,19.68c-0.12,1.83-0.37,3.11,1.5,2.09
						c7.08-3.85,12.34-10.33,16.15-17.31c1.97-3.62,3.92-13.28,2.79-17.05C218.17,273.92,208.13,280.84,204.62,286.46z"/>
				</g>
				<g>
					<path class="st3" d="M179.4,268.21c9.05,6.83,12.91,14.63,13.49,15.9c0.76,1.66,1.46,2.77-0.65,2.49
						c-7.99-1.06-15.22-5.23-21.27-10.39c-3.14-2.68-8.41-11-8.71-14.92C162.27,261.35,174.11,264.22,179.4,268.21z"/>
				</g>
				<g>
					<path class="st3" d="M182.99,290.91c9.05,6.83,12.91,14.63,13.49,15.9c0.76,1.66,1.46,2.77-0.65,2.49
						c-7.99-1.06-15.22-5.23-21.27-10.39c-3.14-2.68-8.41-11-8.71-14.92C165.85,284.05,177.69,286.91,182.99,290.91z"/>
				</g>
				<g>
					<path class="st3" d="M176.85,230.86c1.19-5.85,1.05-12.3-1.56-17.67c-2.61-5.37-7.03-9.84-12.37-12.52
						c-0.78,11.53,5.01,23.1,13.99,30.38L176.85,230.86z"/>
				</g>
				<g>
					<path class="st3" d="M174.18,224.07c4.79,6.58,7.37,14.93,10.29,22.48c3.21,8.32,5.81,16.82,7.98,25.47
						c2.06,8.21,3.74,16.51,5.15,24.86c1.4,8.26,3.29,17.01,2.42,25.4c-0.05,0.52-0.87,0.62-1.03,0.12c-2.5-7.69-2.91-16.04-4.18-24
						c-1.35-8.43-3-16.81-4.94-25.12c-1.96-8.37-4.25-16.7-6.79-24.91c-2.55-8.24-6.66-15.99-8.92-24.28
						C174.15,224.07,174.17,224.06,174.18,224.07L174.18,224.07z"/>
				</g>
			</g>
			<g>
				<g>
					<path class="st3" d="M310.59,271.23c2.71,11.01,0.78,19.5,0.43,20.85c-0.46,1.77-0.62,3.07-2.08,1.52
						c-5.53-5.87-8.51-13.66-9.95-21.48c-0.75-4.06,0.42-13.84,2.66-17.07C301.63,255.1,309.01,264.79,310.59,271.23z"/>
				</g>
				<g>
					<path class="st3" d="M325.26,254.3c0.21,10.33-3.19,17.5-3.77,18.63c-0.76,1.48-1.16,2.61-2.15,0.94
						c-3.75-6.32-4.84-13.84-4.56-21.09c0.15-3.76,3.13-12.23,5.77-14.65C320.51,238.16,325.14,248.26,325.26,254.3z"/>
				</g>
				<g>
					<path class="st3" d="M337.43,241.25c0.16,7.94-2.45,13.45-2.9,14.32c-0.59,1.14-0.89,2.01-1.65,0.72
						c-2.88-4.86-3.73-10.64-3.51-16.21c0.11-2.89,2.41-9.4,4.43-11.26C333.77,228.84,337.33,236.6,337.43,241.25z"/>
				</g>
				<g>
					<path class="st3" d="M346.99,248.96c-7.58,2.39-11.96,6.63-12.64,7.33c-0.89,0.92-1.62,1.49-0.16,1.8
						c5.52,1.18,11.28,0.13,16.48-1.86c2.7-1.03,8.14-5.29,9.26-7.8C359.92,248.45,351.42,247.56,346.99,248.96z"/>
				</g>
				<g>
					<path class="st3" d="M338.67,263.92c-9.86,3.1-15.56,8.62-16.44,9.53c-1.16,1.2-2.1,1.93-0.2,2.34
						c7.18,1.53,14.66,0.16,21.44-2.42c3.51-1.34,10.58-6.88,12.04-10.15C355.48,263.27,344.44,262.11,338.67,263.92z"/>
				</g>
				<g>
					<path class="st3" d="M299.05,291.1c2.71,11.01,0.78,19.5,0.43,20.85c-0.46,1.77-0.62,3.07-2.08,1.52
						c-5.53-5.87-8.51-13.66-9.95-21.48c-0.75-4.06,0.42-13.84,2.66-17.07C290.08,274.96,297.46,284.66,299.05,291.1z"/>
				</g>
				<g>
					<path class="st3" d="M328.7,281.62c-10.73,3.67-16.83,9.88-17.78,10.91c-1.24,1.34-2.25,2.18-0.16,2.57
						c7.92,1.48,16.09-0.22,23.45-3.24c3.82-1.57,11.42-7.83,12.93-11.46C347.12,280.44,334.97,279.47,328.7,281.62z"/>
				</g>
				<g>
					<path class="st3" d="M318.22,302.07c-10.73,3.67-16.83,9.88-17.78,10.91c-1.24,1.34-2.25,2.18-0.16,2.57
						c7.92,1.48,16.09-0.22,23.45-3.24c3.82-1.57,11.42-7.83,12.92-11.46C336.64,300.89,324.49,299.92,318.22,302.07z"/>
				</g>
				<g>
					<path class="st3" d="M342.77,246.92c0.7-5.93,2.83-12.01,6.99-16.3c4.16-4.29,9.75-7.16,15.65-8.04
						c-2.85,11.2-11.96,20.39-22.76,24.51L342.77,246.92z"/>
				</g>
				<g>
					<path class="st3" d="M347.42,241.31c-6.61,4.76-11.66,11.89-16.78,18.16c-5.65,6.9-10.76,14.17-15.52,21.71
						c-4.51,7.16-8.7,14.53-12.64,22.01c-3.9,7.41-8.43,15.13-10.21,23.38c-0.11,0.52,0.63,0.86,0.94,0.43
						c4.77-6.52,7.76-14.33,11.45-21.5c3.91-7.59,8.08-15.04,12.52-22.33c4.47-7.34,9.24-14.54,14.21-21.55
						c4.99-7.04,11.31-13.12,16.04-20.29C347.44,241.32,347.43,241.3,347.42,241.31L347.42,241.31z"/>
				</g>
			</g>
			<g>
				<g>
					
						<ellipse transform="matrix(0.7735 -0.6338 0.6338 0.7735 -109.3441 104.0741)" class="st4" cx="90.95" cy="205.03" rx="17.73" ry="17.73"/>
					<path class="st5" d="M86.21,199.66c0.29-0.23,0.41-0.62,0.27-0.98c-0.45-1.13-1.3-2.02-2.42-2.51
						c-1.11-0.48-2.35-0.51-3.48-0.06c-2.34,0.92-3.49,3.57-2.57,5.9c0.17,0.44,0.67,0.65,1.1,0.48c0.44-0.17,0.65-0.66,0.48-1.1
						c-0.28-0.71-0.27-1.48,0.04-2.18c0.3-0.7,0.86-1.24,1.57-1.52c0.71-0.28,1.48-0.27,2.18,0.04c0.7,0.3,1.24,0.86,1.52,1.57
						c0.17,0.44,0.67,0.65,1.1,0.48C86.08,199.75,86.15,199.71,86.21,199.66z"/>
					<path class="st5" d="M98.77,194.5c0.29-0.23,0.41-0.62,0.27-0.98c-0.92-2.33-3.57-3.49-5.9-2.57c-1.13,0.45-2.02,1.3-2.5,2.42
						c-0.48,1.11-0.51,2.35-0.06,3.48c0.17,0.44,0.67,0.65,1.1,0.48c0.44-0.17,0.65-0.67,0.48-1.1c-0.28-0.71-0.27-1.48,0.04-2.18
						c0.3-0.7,0.86-1.24,1.57-1.52c1.46-0.58,3.12,0.15,3.7,1.61c0.17,0.44,0.67,0.65,1.1,0.48
						C98.64,194.59,98.7,194.55,98.77,194.5z"/>
					<path class="st5" d="M94.75,206.39c1.67-1.29,2.84-3.11,3.29-5.14c0.1-0.46-0.19-0.91-0.64-1.01c-0.46-0.1-0.91,0.19-1.01,0.64
						c-0.37,1.64-1.32,3.12-2.67,4.16c-2.57,1.98-6.09,2.05-8.56,0.16c-0.37-0.28-0.91-0.21-1.19,0.16
						c-0.28,0.37-0.21,0.91,0.16,1.19C87.2,208.91,91.57,208.84,94.75,206.39z"/>
				</g>
			</g>
			<g>
				<circle class="st6" cx="416.06" cy="238.83" r="25.58"/>
			</g>
			<g>
				<circle class="st6" cx="99.87" cy="131.32" r="25.58"/>
			</g>
			<g>
				<circle class="st7" cx="232.1" cy="223.95" r="12.82"/>
				<g>
					<path class="st2" d="M231.49,218.35h-1.93v-1.67h3.78v14.55h-1.85V218.35z"/>
				</g>
			</g>
			<g>
				
					<ellipse transform="matrix(0.2149 -0.9766 0.9766 0.2149 122.081 472.6388)" class="st7" cx="355.01" cy="160.39" rx="12.82" ry="12.82"/>
				<path class="st2" d="M352.79,166.45c0.78,0.29,1.19,1.18,0.91,1.96c-0.29,0.78-1.18,1.19-1.96,0.91
					c-0.78-0.29-1.19-1.18-0.91-1.96C351.12,166.57,352.01,166.16,352.79,166.45z M353.18,164.62c1.35-4.92,3.22-11.82,3.42-12.37
					c0.33-0.9,1.06-1.01,1.68-0.78c0.63,0.23,1.11,0.78,0.78,1.68c-0.2,0.55-3.23,7.03-5.38,11.65L353.18,164.62z"/>
				<g>
					<g>
						<path class="st7" d="M355.05,135.16c-0.65,1.41-0.49,3.01-0.52,4.54c-0.03,1.77-0.2,3.56,0.23,5.29
							c0.13,0.52,0.92,0.52,1.05,0c0.43-1.72,0.26-3.52,0.23-5.29c-0.03-1.53,0.13-3.13-0.52-4.54
							C355.43,134.98,355.13,134.98,355.05,135.16L355.05,135.16z"/>
					</g>
				</g>
				<g>
					<g>
						<path class="st7" d="M372.88,142.58c-1.47,0.44-2.58,1.88-3.65,2.91c-1.22,1.18-2.68,2.31-3.5,3.82
							c-0.26,0.48,0.26,1,0.74,0.74c1.51-0.82,2.65-2.28,3.82-3.5c1.03-1.07,2.47-2.18,2.91-3.65
							C373.27,142.71,373.07,142.52,372.88,142.58L372.88,142.58z"/>
					</g>
				</g>
				<g>
					<g>
						<path class="st7" d="M380.24,160.43c-1.41-0.65-3.01-0.49-4.54-0.52c-1.77-0.03-3.56-0.21-5.29,0.23
							c-0.52,0.13-0.52,0.92,0,1.05c1.72,0.43,3.52,0.26,5.29,0.23c1.53-0.03,3.13,0.13,4.54-0.52
							C380.42,160.81,380.42,160.51,380.24,160.43L380.24,160.43z"/>
					</g>
				</g>
				<g>
					<g>
						<path class="st7" d="M372.82,178.25c-0.44-1.47-1.88-2.58-2.91-3.65c-1.18-1.22-2.31-2.68-3.82-3.5
							c-0.48-0.26-1,0.26-0.74,0.74c0.82,1.51,2.28,2.65,3.5,3.82c1.07,1.03,2.18,2.47,3.65,2.91
							C372.69,178.64,372.88,178.45,372.82,178.25L372.82,178.25z"/>
					</g>
				</g>
				<g>
					<g>
						<path class="st7" d="M354.97,185.62c0.65-1.41,0.49-3.01,0.52-4.54c0.03-1.77,0.2-3.56-0.23-5.29c-0.13-0.52-0.92-0.52-1.05,0
							c-0.43,1.72-0.26,3.52-0.23,5.29c0.03,1.53-0.13,3.13,0.52,4.54C354.59,185.8,354.89,185.8,354.97,185.62L354.97,185.62z"/>
					</g>
				</g>
				<g>
					<g>
						<path class="st7" d="M337.14,178.2c1.47-0.44,2.58-1.88,3.65-2.91c1.22-1.18,2.68-2.31,3.5-3.82c0.26-0.48-0.26-1-0.74-0.74
							c-1.51,0.82-2.65,2.28-3.82,3.5c-1.03,1.07-2.47,2.18-2.91,3.65C336.75,178.06,336.95,178.26,337.14,178.2L337.14,178.2z"/>
					</g>
				</g>
				<g>
					<g>
						<path class="st7" d="M329.78,160.35c1.41,0.65,3.01,0.49,4.54,0.52c1.77,0.03,3.56,0.2,5.29-0.23c0.52-0.13,0.52-0.92,0-1.05
							c-1.72-0.43-3.52-0.26-5.29-0.23c-1.53,0.03-3.13-0.13-4.54,0.52C329.6,159.96,329.6,160.27,329.78,160.35L329.78,160.35z"/>
					</g>
				</g>
				<g>
					<g>
						<path class="st7" d="M337.2,142.52c0.44,1.47,1.88,2.58,2.91,3.65c1.18,1.22,2.31,2.68,3.82,3.5c0.48,0.26,1-0.26,0.74-0.74
							c-0.82-1.51-2.28-2.65-3.5-3.82c-1.07-1.03-2.18-2.47-3.65-2.91C337.34,142.13,337.14,142.33,337.2,142.52L337.2,142.52z"/>
					</g>
				</g>
			</g>
		</g>
		<g>
			<g>
				<rect x="274.74" y="322.75" class="st8" width="33.6" height="101.03"/>
				<rect x="274.74" y="322.75" class="st9" width="4.52" height="101.03"/>
				<polygon class="st10" points="274.74,326.01 279.26,326.01 308.34,322.75 274.74,322.75 				"/>
			</g>
			<g>
				<rect x="242.36" y="310.67" class="st11" width="18.2" height="9.96"/>
				<g>
					<rect x="203.17" y="250.11" class="st11" width="96.58" height="63.04"/>
				</g>
				<g>
					<g>
						<rect x="205.89" y="252.17" class="st12" width="91.14" height="58.91"/>
					</g>
				</g>
				<g>
					<g>
						<path class="st2" d="M255.79,292.52c-1.64,0-3.79-0.04-5.97-0.35c-1.19-0.17-2.26-0.35-3.27-0.56
							c-0.82-0.17-1.75-0.42-2.39-1.24c-0.1-0.06-0.18-0.14-0.25-0.23c-0.28-0.42-0.26-0.88-0.24-1.29l0.01-0.25l0.06-4.44
							c0.01-0.96,0.01-1.92,0-2.88c0-0.2-0.01-0.42-0.02-0.64c-0.03-0.81-0.07-1.73,0.21-2.49c0.11-0.31,0.38-0.5,0.68-0.5
							c0.09,0,0.19,0.02,0.27,0.06c0.12-0.01,0.26-0.02,0.42-0.02c0.11,0,0.61,0.01,0.61,0.01l0.13,0c0.54-0.03,1.32-0.11,1.89-0.5
							c1.22-0.83,1.8-2.75,1.94-4.28l0.06-0.65c0.06-0.77,0.13-1.56,0.28-2.35c0.12-0.63,0.35-1.8,1.36-1.91
							c0.01,0,0.11-0.01,0.12-0.01c0.6,0,1.09,0.45,1.48,1.33c0.4,0.91,0.72,1.85,0.95,2.8c0.24,0.99,0.51,2.17,0.68,3.4
							c0.03,0.19,0.05,0.39,0.08,0.58c0.08,0,1.08-0.04,1.08-0.04c0.6-0.03,1.19-0.05,1.79-0.07c0.24-0.01,0.49-0.01,0.73-0.01
							c0.96,0,2.21,0.07,3.37,0.59c1.21,0.55,2.42,1.73,1.84,3.27c-0.17,0.45-0.5,0.86-0.95,1.19c0.16,0.1,0.3,0.22,0.43,0.34
							c0.59,0.56,0.84,1.4,0.66,2.18c-0.13,0.57-0.48,1.09-0.96,1.45c0.21,0.16,0.39,0.34,0.54,0.54c0.54,0.72,0.58,1.7,0.1,2.44
							c-0.32,0.49-0.83,0.86-1.46,1.07c0.03,0.05,0.06,0.1,0.08,0.15c0.36,0.75,0.3,1.58-0.14,2.17c-0.53,0.7-1.41,0.83-1.88,0.89
							c-1.23,0.18-2.47,0.21-3.53,0.22L255.79,292.52z"/>
						<path class="st12" d="M251.69,268.43c0.54,0,0.88,0.59,1.09,1.07c0.39,0.88,0.7,1.79,0.92,2.73c0.27,1.11,0.51,2.23,0.67,3.36
							c0.04,0.32,0.09,0.64,0.13,0.97c0.31-0.02,0.63-0.03,0.94-0.04c0.77-0.03,1.54-0.07,2.31-0.09c0.24-0.01,0.48-0.01,0.72-0.01
							c1.08,0,2.19,0.1,3.2,0.55c0.96,0.44,2.11,1.42,1.61,2.73c-0.23,0.6-0.8,1.08-1.44,1.36c0.37,0.14,0.73,0.34,1.03,0.63
							c0.46,0.44,0.69,1.12,0.54,1.78c-0.15,0.64-0.61,1.15-1.13,1.42c-0.09,0.05-0.19,0.08-0.28,0.12c0.41,0.17,0.8,0.43,1.08,0.8
							c0.42,0.56,0.47,1.35,0.08,1.95c-0.42,0.65-1.18,0.95-1.87,1.05c0.18,0.15,0.34,0.34,0.46,0.59c0.26,0.56,0.27,1.24-0.1,1.73
							c-0.39,0.52-1.03,0.65-1.61,0.73c-1.15,0.17-2.31,0.21-3.47,0.21c-0.26,0-0.52,0-0.78,0c-1.98,0-3.95-0.06-5.92-0.34
							c-1.09-0.15-2.17-0.33-3.24-0.56c-0.82-0.17-1.64-0.4-2.19-1.15c-0.07-0.03-0.14-0.08-0.18-0.14
							c-0.25-0.37-0.16-0.85-0.15-1.29c0.01-0.52,0.01-1.04,0.02-1.55c0.01-0.96,0.03-1.92,0.04-2.89c0.01-0.96,0.01-1.92,0-2.89
							c-0.01-0.93-0.16-2.1,0.16-2.97c0.06-0.15,0.17-0.23,0.28-0.23c0.06,0,0.13,0.03,0.18,0.07c0.16-0.03,0.33-0.04,0.5-0.04
							c0.21,0,0.42,0.01,0.61,0.01c0.05,0,0.11,0,0.16,0c0.7-0.04,1.49-0.16,2.1-0.57c1.34-0.91,1.98-2.95,2.13-4.59
							c0.09-0.99,0.14-1.98,0.33-2.96c0.12-0.62,0.3-1.49,0.99-1.57C251.64,268.43,251.66,268.43,251.69,268.43 M251.69,267.58
							L251.69,267.58c-0.05,0-0.11,0-0.17,0.01c-1.32,0.14-1.6,1.56-1.73,2.25c-0.16,0.81-0.22,1.62-0.29,2.4
							c-0.02,0.21-0.04,0.43-0.05,0.64c-0.12,1.36-0.66,3.22-1.76,3.96c-0.48,0.33-1.19,0.4-1.67,0.43c-0.04,0-0.07,0-0.11,0
							c-0.08,0-0.17,0-0.26-0.01c-0.11,0-0.23-0.01-0.35-0.01c-0.13,0-0.25,0-0.37,0.01c-0.1-0.03-0.21-0.05-0.32-0.05
							c-0.48,0-0.9,0.31-1.08,0.78c-0.31,0.84-0.27,1.81-0.24,2.66c0.01,0.21,0.02,0.42,0.02,0.62c0.01,0.91,0.02,1.89,0,2.87
							l-0.02,1.56l-0.02,1.32l-0.02,1.55c0,0.08-0.01,0.16-0.01,0.23c-0.02,0.43-0.05,1.01,0.31,1.55c0.08,0.12,0.19,0.23,0.31,0.31
							c0.72,0.89,1.71,1.16,2.59,1.34c1.03,0.21,2.1,0.4,3.3,0.57c2.2,0.31,4.38,0.35,6.04,0.35c0.26,0,0.52,0,0.78,0
							c1.07-0.01,2.33-0.04,3.58-0.22c0.53-0.08,1.53-0.22,2.16-1.06c0.49-0.65,0.6-1.53,0.3-2.35c0.53-0.25,0.96-0.62,1.25-1.07
							c0.58-0.89,0.53-2.06-0.11-2.93c-0.08-0.1-0.16-0.2-0.25-0.29c0.36-0.38,0.62-0.85,0.74-1.36c0.21-0.93-0.09-1.93-0.78-2.59
							c-0.02-0.02-0.04-0.03-0.05-0.05c0.3-0.3,0.53-0.65,0.67-1.02c0.65-1.7-0.57-3.14-2.06-3.81c-1.23-0.56-2.54-0.63-3.55-0.63
							c-0.25,0-0.5,0-0.74,0.01c-0.59,0.02-1.17,0.04-1.76,0.07l-0.57,0.03l-0.16,0.01c-0.01-0.07-0.02-0.13-0.03-0.2
							c-0.18-1.25-0.45-2.44-0.69-3.44c-0.23-0.97-0.56-1.94-0.97-2.88C253.1,268.11,252.47,267.58,251.69,267.58L251.69,267.58z"/>
					</g>
					<g>
						<path class="st2" d="M242.31,292.32c-0.35,0-0.71-0.01-1.06-0.03c-0.45-0.02-0.9-0.05-1.34-0.09
							c-0.3-0.03-0.67-0.07-0.94-0.38c-0.44-0.52-0.35-1.35-0.27-2.03c0.02-0.16,0.04-0.31,0.04-0.44c0.06-1.42,0.08-2.85,0.1-4.27
							l0.02-1.45c0.04-2.04,0.04-4.19-0.2-6.04c-0.02-0.18,0.03-0.35,0.16-0.49c0.25-0.28,0.81-0.54,3.2-0.54
							c0.87,0,1.73,0.04,2.25,0.06c0.21,0.01,0.35,0.01,0.42,0.01c0.08,0,0.18-0.01,0.29-0.02c0.18-0.02,0.38-0.03,0.57-0.03
							c0.21,0,0.86,0,1.17,0.48c0.15,0.23,0.17,0.5,0.18,0.72l0.01,0.12l0.15,1.49c0.42,4.29,0.44,8.29,0.06,11.89
							c-0.05,0.45-0.33,0.75-0.75,0.79C245.07,292.19,243.68,292.32,242.31,292.32z"/>
						<path class="st12" d="M242.01,276.98c1.24,0,2.44,0.07,2.66,0.07c0,0,0,0,0.01,0c0.2,0,0.53-0.05,0.86-0.05
							c0.34,0,0.67,0.06,0.82,0.28c0.11,0.17,0.1,0.45,0.12,0.65c0.05,0.5,0.1,0.99,0.15,1.49c0.38,3.9,0.48,7.9,0.06,11.8
							c-0.03,0.24-0.15,0.39-0.37,0.41c-1.33,0.14-2.67,0.26-4.01,0.26c-0.35,0-0.69-0.01-1.04-0.03c-0.44-0.02-0.88-0.04-1.32-0.09
							c-0.23-0.02-0.49-0.04-0.66-0.24c-0.42-0.48-0.15-1.58-0.13-2.17c0.08-1.91,0.09-3.82,0.12-5.73c0.03-1.95,0.04-4.17-0.2-6.1
							C239.02,277.09,240.54,276.98,242.01,276.98 M242.01,276.13c-2.43,0-3.15,0.26-3.52,0.69c-0.21,0.23-0.3,0.53-0.26,0.83
							c0.23,1.82,0.23,3.95,0.2,5.98c-0.01,0.49-0.02,0.98-0.02,1.47c-0.02,1.39-0.04,2.84-0.1,4.24c-0.01,0.12-0.02,0.26-0.04,0.41
							c-0.08,0.72-0.19,1.7,0.37,2.35c0.38,0.44,0.9,0.49,1.17,0.52c0.49,0.05,0.93,0.07,1.36,0.1l0.05,0
							c0.36,0.02,0.72,0.03,1.08,0.03c1.39,0,2.79-0.13,4.1-0.26c0.62-0.06,1.06-0.52,1.13-1.17c0.38-3.62,0.36-7.65-0.06-11.97
							l-0.07-0.69l-0.08-0.8l-0.01-0.1c-0.01-0.24-0.03-0.6-0.25-0.93c-0.29-0.44-0.8-0.67-1.53-0.67c-0.21,0-0.42,0.02-0.61,0.03
							c-0.1,0.01-0.18,0.02-0.25,0.02c-0.06,0-0.2-0.01-0.4-0.01C243.76,276.17,242.9,276.13,242.01,276.13L242.01,276.13z"/>
					</g>
					<path class="st12" d="M242.38,288.68c0.85,0.49,1.82-0.48,1.81-1.44c-0.01-0.76-0.57-1.39-1.27-1.31
						c-0.47,0.06-0.89,0.45-1.05,0.94c-0.06,0.19-0.09,0.41-0.09,0.62C241.79,287.97,241.99,288.45,242.38,288.68z M242.95,286.68
						C242.95,286.68,242.95,286.68,242.95,286.68C242.95,286.68,242.95,286.68,242.95,286.68
						C242.94,286.68,242.95,286.68,242.95,286.68z"/>
				</g>
			</g>
			<g>
				<rect x="161.45" y="322.75" class="st8" width="33.6" height="101.03"/>
				<rect x="161.45" y="322.75" class="st9" width="4.52" height="101.03"/>
				<polygon class="st10" points="161.45,326.01 165.97,326.01 195.05,322.75 161.45,322.75 				"/>
			</g>
			<g>
				<rect x="150.44" y="319.06" class="st8" width="164.59" height="3.72"/>
				<rect x="269.45" y="319.06" class="st13" width="45.57" height="3.72"/>
			</g>
			<path class="st11" d="M274.64,319.06c0,0-0.2-5.62,7.21-5.62s8.15,4.58,8.15,5.62C289.99,319.06,274.32,318.74,274.64,319.06z"/>
		</g>
		<g>
			<g>
				<g>
					<path class="st14" d="M257.38,140.54c-0.59-0.98-1.21-1.94-1.86-2.89c-1.64-2.38-4.02-6.01-6.81-6.96
						c-2.94-0.99-6.36-0.46-9.35-0.07c-9.18,1.17-18.36,2.33-27.54,3.5c-4.59,0.58-9.18,1.17-13.77,1.75
						c-1.82,0.23-9.52,0.46-9.57,4.25c-0.09,2.39,6.93,2.94,8.82,3.37c9.77,2.23,16.98,2.64,25.88,3.8
						c4.92-0.19,9.04-1.42,13.63-2.83c4.64-1.43,7.05,2.58,9.03,6.55c2.37,4.77,7.08,14.16,14.03,10.99
						c1.67-0.76,2.92-2.31,3.45-4.05c0.58-1.93-0.08-3.5-0.63-5.35C261.43,148.38,259.64,144.32,257.38,140.54z"/>
					<path class="st15" d="M244.68,148.17c2.08-2.65,4.24-5.14,7.28-6.83c1.39-0.78,2.86-1.35,4.35-1.82
						c0.25,0.4,0.53,0.79,0.77,1.2c2.26,3.77,4.03,7.8,5.28,11.99c0.07,0.24,0.14,0.48,0.22,0.71c0.48,1.54,0.89,2.86,0.41,4.44
						c-0.05,0.16-0.1,0.32-0.16,0.47c-0.58,1.5-1.71,2.73-3.1,3.36c-6.68,3.05-11.34-6.32-13.58-10.83
						C245.7,149.95,245.21,149.03,244.68,148.17z"/>
				</g>
				<g>
					<path class="st10" d="M189.98,138.55c1.15-0.45,2.29-0.93,3.43-1.39c0.61-0.25,1.54-0.8,1.18-1.61
						c-0.31-0.7-1.28-1.17-1.72-1.81c-0.47-0.69-0.64-1.54-0.77-2.37c-0.49-2.98-0.36-5.97-0.95-8.94
						c-0.21-1.06,0.12-2.35-0.82-3.02c-1.12-0.8-2.63-0.42-3.08,0.62c-0.38,0.86-0.7,1.74-0.97,2.65c-0.48,1.6-0.79,3.26-0.85,4.93
						c-0.06,1.63,0.1,3.28-0.12,4.9c-0.32,2.31-1.53,5.5-1.66,7.85c-0.42,1.65,1.35,1.78,3.13,2.49c0.95,0.38,2.22,0.82,3.25,0.54
						c0.15-0.05,0.3-0.07,0.78-0.54c-0.91-0.2-2.41-1.41-2.51-2.3C188.19,139.37,189.07,138.9,189.98,138.55z"/>
					<path class="st16" d="M191.22,139.12c1.15-0.45,2.29-0.93,3.43-1.39c0.61-0.25,1.54-0.8,1.18-1.61
						c-0.31-0.7-1.28-1.17-1.72-1.81c-0.47-0.69-0.64-1.54-0.77-2.37c-0.49-2.98-0.36-5.97-0.95-8.94
						c-0.21-1.06-0.64-2.76-1.58-3.44c-1.12-0.8-1.87,0-2.32,1.03c-0.38,0.86-0.7,1.75-0.97,2.65c-0.48,1.6-0.79,3.26-0.85,4.93
						c-0.06,1.63,0.1,3.28-0.12,4.9c-0.32,2.31-1.53,5.5-1.66,7.85c-0.42,1.65,1.35,1.78,3.13,2.49c0.95,0.38,2.22,0.82,3.25,0.54
						c0.15-0.05,0.3-0.07,0.78-0.54c-0.91-0.2-2.41-1.41-2.51-2.3C189.43,139.94,190.31,139.47,191.22,139.12z"/>
				</g>
				<g>
					<path class="st16" d="M275.41,176.93c0.7,1.64,1.41,3.36,1.32,5.14c-0.11,2.24-1.44,4.22-2.73,6.06
						c-1.65,2.35-3.5,4.75-6.49,5.24c-2.79,0.46-5.77-0.52-7.99-2.2c-0.01-0.01-0.01-0.01-0.02-0.02l-15.97-36.77
						c1.42-2.03,2.92-4,4.62-5.81c3.29-3.51,7.35-6.44,12.01-7.65C265.25,152.93,270.33,164.93,275.41,176.93z"/>
					<g>
						<g>
							<path class="st2" d="M259.04,147.94c0.39,0.26,0.84,0.17,1.28,0.04c0.47-0.13,1-0.31,1.22-0.78c0.16-0.34,0.05-0.8-0.36-0.89
								c-0.82-0.18-2.12,0.67-2.19,1.53C258.98,147.89,259.01,147.92,259.04,147.94L259.04,147.94z"/>
						</g>
					</g>
					<g>
						<g>
							<path class="st2" d="M259.86,146.02c0.32-0.05,0.58-0.14,0.87-0.27c0.87-0.39,0.06-1.85-0.76-1.3
								c-0.27,0.18-0.47,0.35-0.68,0.6C258.9,145.51,259.28,146.1,259.86,146.02L259.86,146.02z"/>
						</g>
					</g>
				</g>
			</g>
			<g>
				<polygon class="st7" points="183.63,186.11 188.15,206.01 210.57,179.32 				"/>
				<path class="st7" d="M160.86,103.34l80.96-22.7c10.17-2.85,20.76,3.15,23.66,13.4l14.17,50.19
					c2.89,10.25-3.01,20.87-13.18,23.72l-80.96,22.7c-10.17,2.85-20.76-3.15-23.66-13.4l-14.17-50.19
					C144.79,116.81,150.69,106.19,160.86,103.34z"/>
				<path class="st17" d="M185.64,137.15c-1.82-7.22,0.6-14.94,9.2-17.42c5.34-1.54,10.85,0.26,14.35,4.15
					c0.88-5.16,4.56-9.62,9.9-11.16c11.77-3.4,19.56,8.17,17.72,18.7c-1.95,11.12-8.65,20.7-17.28,27.68l-0.18,0.05
					c-10.41-1.21-21.87-5.35-29.09-13.33C188.03,143.34,186.43,140.29,185.64,137.15z"/>
			</g>
			<g>
				<path class="st14" d="M291.88,194.67c3.41-4.21,5.43-9.19,4.29-13.51c-1.33-5.03-5.98-8.86-11.1-9.74
					c-5.13-0.88-10.53,0.97-14.43,4.4c-3.32,2.92-5.66,7-6.26,11.38c-1.08,7.88,3.05,17.38,12.05,16.89
					C281.48,203.82,287.71,199.82,291.88,194.67z"/>
				<g>
					<path class="st18" d="M309.39,123.52c2.6,0.1,5.18,0.72,6.71,2.62c4.42,5.48,4.27,14.03,2.86,20.56
						c-1.53,7.07-4.94,13.57-8.31,19.96c-4.6,8.74-8.92,17.72-13.83,26.29c-1.45,2.53-3.34,2.11-6.03,1.67
						c-0.47-0.08-6.78-1.32-6.75-1.5c-3.67-1.04-7.18-2.61-10.42-4.61c-6.62-4.09-11.99-10.18-15.51-17.1
						c3.31-0.87,6.67-4.36,9.03-6.77c2.71-2.76,5.1-5.83,7.32-9c4.3-6.13,8.05-12.67,12.8-18.46
						C292.41,130.92,300.74,123.17,309.39,123.52z"/>
				</g>
				<g>
					<g>
						<g>
							<path class="st19" d="M281.01,152.39c0.6,0.54,0.84,1.64,1.15,2.35c0.31,0.71,0.4,1.23,1.09,1.68
								c0.76,0.5,1.98,0.71,2.85,0.9c3.19,0.69,6.54,0.97,9.79,1.31c5.61,0.59,13.79,1.22,17.3-4.16c-3.69-3-7.99-5.45-12.16-7.7
								c-4.23-2.28-8.63-4.39-13.27-5.69c-0.88-0.24-1.88-0.49-2.96-0.7c-2.6,3.52-4.96,7.22-7.37,10.88
								C278.78,151.45,280.22,151.68,281.01,152.39z"/>
						</g>
					</g>
				</g>
			</g>
			<g>
				<path class="st20" d="M306.79,108.83c1.69-0.07,3.69,0,4.64,1.41c0.05,0.07,1.35,0.11,1.38,0.18c0.49,1.1,0.35,2.04,0.1,3.03
					c-0.83,2.31-1.5,4.62-1.4,7.23c0.08,2.06,0.32,4.14,1.14,6.02c-1.76,5.9-12.7,4.56-17.86,4.74c-0.19,0.01-0.29-0.21-0.15-0.34
					c0.93-0.89,2.38-3.09,2.64-3.59c1.09-2.04,2.48-4.14,2.68-6.62c0.14-1.7-0.29-3.4-0.46-5.1c-0.17-1.7-0.04-3.56,1.05-4.88
					C301.98,109.16,304.53,108.92,306.79,108.83z"/>
				<path class="st15" d="M306.81,109.17c1.68-0.07,3.51,0.02,4.34,1.26c0.12,0.17,0.26,0.18,0.92,0.24
					c0.15,0.01,0.36,0.03,0.5,0.05c0.39,0.97,0.23,1.81,0.02,2.65c-0.63,1.75-1.2,3.67-1.36,5.75c-3.3,4.34-8.45,7.05-13.71,8.68
					c0.04-0.07,0.07-0.11,0.07-0.12c0.18-0.33,0.36-0.67,0.55-1.01c0.98-1.77,2-3.6,2.17-5.74c0.1-1.21-0.09-2.42-0.26-3.58
					c-0.08-0.53-0.16-1.06-0.21-1.58c-0.21-2.03,0.12-3.59,0.97-4.63C302.14,109.5,304.5,109.27,306.81,109.17z"/>
			</g>
			<g>
				<g>
					<path class="st14" d="M240.65,161.56c-0.95-0.64-1.92-1.25-2.91-1.83c-2.5-1.46-5.45-3.4-8.39-3.37
						c-3.1,0.04-6.15,1.68-8.85,3.03c-8.27,4.15-38.34,19.89-42.48,21.96c-1.64,0.82-7.6,3.65-7.06,5.56
						c0.71,2.28,2.19,1.65,4.11,1.43c9.96-1.14,26.93-5.98,35.71-7.84c4.58-1.82,8.06-4.34,11.91-7.2
						c3.91-2.89,8.47-0.12,11.95,2.64c4.17,3.31,12.41,9.82,17.37,4c1.19-1.4,1.67-3.33,1.4-5.13c-0.29-2-1.56-3.14-2.84-4.58
						C247.65,166.95,244.3,164.03,240.65,161.56z"/>
					<path class="st15" d="M229.95,172.57c0.48-2.49,1-4.96,1.98-7.37c0.94-2.32,2.16-4.39,3.5-6.41c0.47,0.27,0.93,0.54,1.38,0.8
						l0.76,0.45c0.97,0.57,1.94,1.18,2.89,1.82c3.64,2.46,6.96,5.36,9.86,8.62c0.17,0.19,0.33,0.37,0.5,0.55
						c1.09,1.19,2.02,2.22,2.26,3.85c0.16,1.1,0.03,2.22-0.36,3.22c-0.23,0.6-0.56,1.15-0.96,1.63c-4.76,5.59-12.95-0.92-16.89-4.05
						C233.45,174.55,231.75,173.35,229.95,172.57z"/>
				</g>
				<g>
					<path class="st16" d="M247.49,163.89c4.61,4.69,9.4,9.19,14.26,13.62c4.4,4.01,9.05,7.8,13.11,12.15
						c0.99,1.05,11.05,13.6,10.44,13.95c-10.17,5.93-21.93,5.41-31.92-0.13c-5.02-2.78-9.37-6.59-13.3-10.74
						c-1.9-2-7.58-9.94-9.99-11.94c0.76-1.94,1.71-3.88,2.32-5.88c2.33-6.32,5.42-12.12,8.36-18.16
						C242.95,159.19,245.2,161.56,247.49,163.89z"/>
					<path class="st2" d="M234.86,169.01c5.01,7.96,11.23,15.01,18.52,20.96c3.05,2.49,7.74,5.99,13.1,7.54
						c5.01,1.45,9.97,0.96,13.66-1.31c0.83,1.07,1.66,2.15,2.41,3.15l-0.11,0.07c-4.66,2.97-10.87,3.66-17.05,1.88
						c-6.06-1.75-11.18-5.56-14.5-8.27c-6.91-5.64-12.91-12.22-17.87-19.6C233.6,171.93,234.21,170.46,234.86,169.01z"/>
				</g>
				<g>
					<path class="st10" d="M172.75,183.96c0.56-0.38,1.13-0.75,1.55-1.27c0.7-0.89,0.84-2.13,0.62-3.25
						c-0.19-0.97-0.57-1.9-1.01-2.78c-0.41-0.83-0.83-1.74-1.37-2.49c-0.59-0.83-0.87-1.98-1.24-2.93
						c-0.42-1.07-0.84-2.15-1.26-3.22c-0.12-0.31-0.24-0.62-0.47-0.86c-0.38-0.4-1.01-0.52-1.52-0.68
						c-0.47-0.14-0.97,0.07-1.33,0.39c-0.37,0.33-0.62,0.78-0.83,1.23c-2.67,5.6-1.26,11.64,1,17.09c0.61,1.47,1.19,2.44,1.79,3.04
						c0.97,0.58,3.77,1.14,4.94,0.62c0.14-0.08-0.65,0.04-0.24-0.51c-0.93-0.06-1.67-1.18-1.9-2.04
						C171.2,185.23,172.01,184.47,172.75,183.96z"/>
					<path class="st16" d="M174.05,184.46c0.56-0.38,1.13-0.75,1.55-1.27c0.7-0.89,0.84-2.13,0.62-3.25
						c-0.37-1.92-1.49-3.63-2.38-5.34c0.08-0.2-0.66-1.27-0.77-1.48c-0.28-0.53-0.55-1.06-0.83-1.59c-0.54-1.03-1.05-2.07-1.55-3.11
						c-0.29-0.6-0.64-1.27-1.29-1.44c-0.48-0.13-1.01,0.07-1.38,0.4c-0.37,0.33-0.62,0.78-0.83,1.23c-2.67,5.6-1.26,11.64,1,17.09
						c0.61,1.47,1.19,2.44,1.79,3.04c0.97,0.58,3.77,1.14,4.94,0.62c0.14-0.08,0.29-0.11,0.69-0.66c-0.93-0.06-2.6-1.03-2.83-1.9
						C172.5,185.74,173.3,184.97,174.05,184.46z"/>
				</g>
			</g>
			<g>
				<g>
					<path class="st14" d="M321.89,107.19c-1.01,3.89-3.48,6.85-6.64,9.21c-3.46,2.59-6.96,4.85-11.2,5.96
						c-1.99,0.52-4.18,1.03-6.26,0.6c-1.92-0.39-3.37-1.78-4.11-3.57c-0.75-1.82-0.54-3.88-0.47-5.81c0.08-2.18,0.1-4.59,0.59-6.72
						c0.24-1.03,0.95-1.52,1.47-2.4c0.43-0.72,0.52-1.58,0.69-2.4c0.36-1.76,1.07-3.44,2-4.98c0.81-1.33,1.76-2.91,2.78-4.07
						c2.31-2.64,6.63-3.69,9.99-3.27c3.87,0.49,7.44,2.85,9.5,6.17C322.31,99.24,322.87,103.41,321.89,107.19z"/>
					<path class="st5" d="M310.08,88.08c0.7,0.01,1.39,0.08,2.09,0.21c3.31,0.61,6.31,2.46,8.57,4.93c3.61,3.95,4.2,9.92,2.28,14.79
						c-1.61,4.11-3.97,8.58-8.28,10.3c-0.39,0.16-0.89,0.27-1.18-0.03c-0.27-0.28-0.18-0.74-0.02-1.09
						c0.13-0.27,0.32-0.55,0.35-0.86c0.03-0.29-0.03-0.48,0.06-0.77c0.18-0.58,0.5-1.16,0.51-1.78c0.01-0.54-0.3-1.11-0.88-1.2
						c-0.5-0.07-1.37,0.75-1.65-0.04c-0.11-0.31,0.02-0.66,0.14-0.97c0.19-0.48,0.37-0.97,0.57-1.45c0.14-0.32,0.35-0.58,0.5-0.9
						c0.32-0.69,0.34-1.54,0-2.23c-0.25-0.51-0.67-0.95-0.81-1.5c-0.14-0.57,0.06-1.16,0.25-1.72c0.45-1.29,0.89-2.58,1.34-3.87
						c0.6-1.75-0.58-2.29-2.07-2.62c-3.12-0.68-6.09-2.04-8.65-3.96c-1.76-1.32-2.83,0.24-4.13,1.37
						C300.35,90.21,305.76,88,310.08,88.08z"/>
				</g>
				<g>
					<path class="st21" d="M312.58,113.25c0.8-0.85,2.24-1.42,3.4-1.35c2.11,0.13,2.27,2.36,1.24,3.77
						c-1.35,1.84-4.15,3.77-6.42,2.38"/>
					<path class="st21" d="M315.71,114.9c0.42-0.3,0.42-0.99,0.05-1.22c-0.93-0.58-2.14,0.65-2.58,1.38
						c0.49,0.1,0.49,0.73,0.15,1.02c-0.34,0.29-0.89,0.33-1.3,0.2"/>
				</g>
				<g>
					<g>
						<path class="st5" d="M308.4,107.1c-0.74-0.63-1.26-1.37-2.13-1.85c-0.85-0.47-1.75-0.61-2.69-0.82c-0.24-0.06-0.24-0.45,0-0.5
							c1.85-0.39,4.69,1.05,5.09,3.02C308.71,107.11,308.53,107.2,308.4,107.1L308.4,107.1z"/>
					</g>
					<g>
						<path class="st5" d="M299.42,114.8c0.64-0.15,1.34-0.47,1.91-0.15c0.53,0.3,0.65,1.06,0.38,1.61
							c-0.27,0.54-0.82,0.89-1.39,1.1c-1.14,0.42-2.43,0.39-3.55-0.09c-0.93-0.4-2.41-2.13-0.93-2.89
							C296.77,113.9,298.28,115.07,299.42,114.8z"/>
						<path class="st22" d="M301.54,114.85c-1.59,0.33-3.12,1.33-3.92,2.69c0.89,0.19,1.84,0.13,2.69-0.18
							c0.57-0.21,1.12-0.56,1.39-1.1C301.93,115.8,301.87,115.21,301.54,114.85z"/>
					</g>
					<g>
						<path class="st5" d="M303.03,109.74c-1.21-0.69-0.15-2.57,1.07-1.88C305.31,108.55,304.24,110.43,303.03,109.74L303.03,109.74
							z"/>
					</g>
					<path class="st23" d="M299.16,106.19c-0.48,1.26-1.33,2.38-2.41,3.19c-0.42,0.31-0.91,0.64-0.99,1.15
						c-0.09,0.58,0.37,1.08,0.79,1.48"/>
					<g>
						<path class="st5" d="M296.09,105.83c-1.21-0.69-0.15-2.57,1.07-1.88C298.37,104.63,297.31,106.52,296.09,105.83L296.09,105.83
							z"/>
					</g>
					<g>
						<path class="st5" d="M299.26,102.76c-0.62-0.49-1.21-1.02-1.95-1.33c-0.6-0.25-1.36-0.12-1.87-0.51
							c-0.13-0.1-0.18-0.28-0.05-0.4c0.59-0.56,1.67-0.17,2.31,0.15c0.83,0.42,1.52,1.09,1.67,2.03
							C299.38,102.77,299.31,102.8,299.26,102.76L299.26,102.76z"/>
					</g>
				</g>
			</g>
			<g>
				<g>
					<g>
						<path class="st20" d="M274.28,130.43c-3.76-1.93-5.55-27.46-4.21-32.8c0.25-0.99,0.49-1.97,0.74-2.96
							c0.36-1.45,0.72-2.9,1.08-4.35c0.1-0.39,0.06-0.79-0.1-1.16l-1.89-4.22c-0.16-0.35-0.42-0.63-0.76-0.81
							c-0.96-0.5-2.89-1.21-3.1,1.03c0,0-0.39-2.21-2.25-1.63c-1.61,0.51-1.06,2.49-1.06,2.49s-1.96-0.87-2.42,1.4
							c0,0-2.18-0.63-2.09,2.55c0,0,2.57,8.79,2.57,8.79c0.39,1.34,0.87,27.6,0.92,36.35c0.02,2.93,6.96,5.26,9.63,6.37
							c7.14,2.95,14.14,6.7,21.56,9.11c5.16,1.68,12.02,3.43,17.52,2.92c2.22-0.21,5.11-3.36,4.86-5.82
							c-0.2-1.93-2.13-3.3-3.64-4.23c-2.62-1.63-5.54-2.67-8.46-3.62C297.05,137.84,283.55,134.05,274.28,130.43z"/>
					</g>
				</g>
				<path class="st15" d="M313.64,151.08c-0.97,1.18-2.24,2-3.25,2.09c-4.36,0.41-10.21-0.57-17.38-2.9
					c-2.97-0.97-5.9-2.17-8.78-3.43c0.7-4.15,2.57-7.66,5.01-10.95c2.39,0.75,4.74,1.47,6.91,2.13c2.76,0.84,5.15,1.57,6.93,2.15
					c2.66,0.87,5.72,1.93,8.39,3.59c1.62,1,3.3,2.26,3.47,3.97C315.04,148.73,314.57,149.95,313.64,151.08z"/>
				<path class="st18" d="M288.91,139.31c0.76-1.6,1.67-3.52,2.86-5.15c0.14-0.04,0.27-0.1,0.42-0.11c0.61-0.05,1.21,0.15,1.78,0.34
					c0.36,0.12,0.71,0.23,1.07,0.34c4.24,1.35,8.5,2.69,12.66,4.29c4.51,1.73,8.22,4.67,9.06,9.88c0.71,4.37-2.51,8-6.84,8.33
					c-2.05,0.15-4.09-0.32-6.08-0.82c-5.31-1.33-10.59-2.83-15.81-4.5c-0.56-0.18-1.13-0.38-1.65-0.67
					C285.96,147.05,287.07,143.18,288.91,139.31z"/>
			</g>
		</g>
		<g>
			<g>
				<g>
					<path class="st24" d="M166.81,301.79c1.17-3.68,5.26-5.54,8.8-4l23.81,10.5c2.65,1.15,5.49,1.83,8.34,1.05
						c3.11-0.85,6.03-2.58,9.33-2.61c2.76-0.02,5.37,1.21,7.7,2.67c0.18,0.11,0.38,0.25,0.42,0.46c0.05,0.26-0.08,0.75-0.34,0.83
						c-0.25,0.08-0.52,0.04-0.78-0.01c-1.33-0.23-2.69-1.01-4.02-1.37c-0.93-0.25-2.51-0.68-3.28,0.26
						c2.99,0.63,5.87,1.57,8.58,2.97c0.41,0.21,0.88,0.52,0.89,0.98c0.01,0.47-0.48,0.82-0.95,0.83c-0.47,0.02-0.91-0.2-1.33-0.4
						c-2.42-1.13-5.07-1.77-7.74-1.86c2.29,0.02,4.57,0.52,6.67,1.44c0.49,0.21,0.97,0.46,1.32,0.86c0.34,0.4,0.6,0.59,0.36,1.06
						c-0.25,0.49-0.81,0.44-1.34,0.28c-0.68-0.21-1.39-0.74-1.9-0.96c-1.86-0.78-3.06-0.59-5.08-0.54c1.53,0.08,2.21,0.17,3.54,0.55
						c0.58,0.17,2.44,1.5,2.1,2.04c-0.3,0.47-1.35-0.01-1.86-0.21c-1.41-0.54-2.91-0.5-4.39-0.45c-1.89,0.06-4.88,1.71-6.75,1.91
						c-1.48,0.16-2.9-0.03-4.31-0.48c-1.58-0.51-3.19-0.75-4.85-1.04c-3.77-0.65-6.26-0.99-9.99-1.85
						c-5.29-1.22-10.53-2.64-15.71-4.27c-1.85-0.58-4.88-0.96-6.12-2.52C166.59,306.3,166.18,303.8,166.81,301.79z"/>
					<g>
						<path class="st25" d="M212.95,311.4c-0.25,0.93-0.9,1.73-1.75,2.17c-0.85,0.44-1.89,0.49-2.79,0.15"/>
						<g>
							<path class="st26" d="M212.95,311.4c-0.36,0.64-1.19,1.45-1.83,1.79c-0.49,0.26-1.03,0.39-1.59,0.37
								c-0.43-0.02-0.76-0.15-1.19-0.07c-0.2,0.04-0.23,0.29-0.11,0.42c0.71,0.78,2.32,0.44,3.16-0.01
								c0.43-0.23,0.84-0.56,1.13-0.95c0.42-0.55,0.38-0.92,0.43-1.55C212.96,311.39,212.95,311.39,212.95,311.4L212.95,311.4z"/>
						</g>
					</g>
					<g>
						<path class="st25" d="M207.88,309.63c2.62-1.17,4.92-3.03,6.63-5.33c0.35-0.47,1.24-1.78,1.8-1.62
							c0.32,0.09,0.19,0.87,0.25,1.2c0.06,0.33-0.07,0.98-0.15,1.3c-0.43,1.69-1.25,3.29-2.38,4.62"/>
						<g>
							<path class="st26" d="M207.88,309.64c2.65-0.95,4.78-2.45,6.56-4.65c0.3-0.38,0.64-1.03,1.02-1.3c0.6-0.44,0.78-0.1,0.74,0.6
								c-0.11,2.03-1.41,3.7-2.37,5.39c-0.14,0.24,0.18,0.48,0.38,0.29c1.42-1.27,2.45-3.45,2.69-5.35
								c0.08-0.63,0.31-2.14-0.59-2.34c-1.11-0.25-2.21,1.96-2.73,2.59c-1.56,1.89-3.6,3.5-5.7,4.74
								C207.87,309.63,207.88,309.64,207.88,309.64L207.88,309.64z"/>
						</g>
					</g>
				</g>
				<g>
					<path class="st18" d="M165.47,301.11c0.46,1.27,0.93,2.54,1.47,3.78c0.75,1.74,1.67,3.48,3.15,4.66
						c1.02,0.82,2.31,1.33,3.62,1.32c0.04,1.3,0.54,2.58,1.39,3.56c1.8-5.29,5.13-10.04,9.48-13.54
						c-0.06,0.04-4.64-16.73-4.86-17.65c0.26-1-0.83-3.36-1.08-4.39c-0.43-1.75-0.86-3.51-1.3-5.26c-0.74-3.01-1.48-6-2.43-8.96
						c-1.22-3.81-3.11-7.64-6.43-9.88c-2.68-1.81-7.15-2.46-9.85-0.27c-2.72,2.2-2.67,6.47-2.3,9.63c0.57,4.84,1.05,9.83,2.16,14.59
						c1.11,4.76,4.68,15.84,6.29,20.46C165.01,299.81,165.24,300.46,165.47,301.11z"/>
					<path class="st19" d="M168.12,279.11c0.43-4.07,0.54-8.19,0.78-12.27c0.24-4.08,0.52-8.42-0.85-12.34c0-0.01,0-0.01,0-0.02
						c-2.71-1.59-6.85-2.06-9.41,0c-2.72,2.2-2.67,6.47-2.3,9.63c0.57,4.84,1.05,9.83,2.16,14.58c1.11,4.76,4.68,15.84,6.29,20.46
						c0.23,0.65,0.45,1.3,0.68,1.94c0.32,0.89,0.66,1.78,1.01,2.66C167.68,297.7,167.47,285.26,168.12,279.11z"/>
					<g>
						<path class="st19" d="M183.88,299.4c-5.01,1.56-9.86,5.07-12.88,9.32"/>
					</g>
					<g>
						<path class="st19" d="M183.7,299.42c-4.19-0.43-7.48,0.42-10.97,2.79"/>
					</g>
				</g>
			</g>
			<path class="st27" d="M254.71,319.06h-48.68l0,0c0-1.85,1.5-3.36,3.36-3.36h41.96C253.21,315.7,254.71,317.21,254.71,319.06
				L254.71,319.06z"/>
			<g>
				<g>
					<path class="st18" d="M120.43,253.92c3.39-3.19,9.14-4.1,13.07-6.15c0.44-0.23,3.77-1.61,3.79-1.98
						c0.09-1.51,1.37-2.73,2.79-3.22c1.42-0.5,2.98-0.42,4.48-0.33c3.34,0.19,6.7-0.01,10.02,0.48c1.69,0.25,3.14,0.77,4.69,1.44
						c1.57,0.68,3.03,1.21,3.63,3.02c0.46,1.37,0.15,2.97-0.77,4.07c-0.16,0.19,4.95,3.02,5.44,3.39c1.75,1.35,1.63,4.16,1.61,6.18
						c-0.11,12.21-8.16,60.37-10.21,72.38c-0.4,2.34-0.8,4.68-1.2,7.02c-0.28,1.56-20.07-0.39-21.98-0.69
						c-1.69-0.26-18.5-3.13-18.67-2.52c3.35-14.57,4.63-29.6,3.84-44.53c-0.39-7.35-1.28-14.68-2.67-21.91
						C117.29,265.37,116.03,258.06,120.43,253.92z"/>
				</g>
				<g>
					<g>
						<g>
							<path class="st19" d="M161.51,303.01c-6.04-2.04-9.64-7.45-13.87-11.87c-5.43-5.69-11.05-11.13-16.16-17.11
								c-2.23-2.61-4.5-5.2-7.01-7.55c-1.57-1.47-3.25-2.78-4.98-4.07c-0.71-0.53-1.38-1.12-2.08-1.66
								c-0.32,3.32,0.32,6.91,0.89,9.84c0.73,3.8,1.32,7.63,1.77,11.48c0.27,0.49,0.56,0.97,0.86,1.44
								c1.75,2.67,3.86,5.17,5.75,7.75c4.05,5.52,8.05,11.03,12.59,16.16c1.69,1.9,3.27,4.37,5.6,5.54
								c1.58,0.79,2.86,0.15,4.47,0.06c0.91-0.06,1.78,0.19,2.66,0.41c3.17,0.78,6.33,0.38,9.57,0.53c0.23,0.01,0.45,0.03,0.67,0.04
								l1.75-10.23C163.16,303.53,162.33,303.29,161.51,303.01z"/>
						</g>
					</g>
				</g>
				<g>
					<path class="st19" d="M140.21,243.26c-0.88,0.24-1.57,1.08-1.61,2"/>
				</g>
				<g>
					<path class="st19" d="M141.43,244.96c-0.8,0.61-1.26,1.65-1.17,2.66"/>
				</g>
				<g>
					<path class="st19" d="M143.41,247.69c-0.27,0.86-0.54,1.72-0.82,2.58"/>
				</g>
				<g>
					<path class="st19" d="M147.25,249.65c-0.09,1.03-0.17,2.06-0.26,3.09"/>
				</g>
				<g>
					<path class="st19" d="M149.74,250.57c0.85,0.75,1.16,2.06,0.73,3.12"/>
				</g>
				<g>
					<path class="st19" d="M154.23,250.36c0.74,0.84,1.05,2.05,0.78,3.15"/>
				</g>
				<g>
					<path class="st19" d="M159.01,248.11c0.87,0.27,1.54,1.09,1.62,2"/>
				</g>
				<g>
					<path class="st19" d="M159.99,245.62c0.9-0.04,1.77,0.64,1.95,1.53"/>
				</g>
				<g>
					<path class="st19" d="M157.4,250.02c0.87,0.77,1.27,2.03,1,3.16"/>
				</g>
				<g>
					<path class="st19" d="M154.3,255.44c3.46-0.19,6.74-2.4,8.23-5.53"/>
				</g>
				<g>
					<path class="st19" d="M145.32,253.11c-3.74-1.04-6.86-4.08-8.01-7.79"/>
				</g>
				<g>
					<path class="st19" d="M139.8,251.25c1.93,2.01,4.61,3.29,7.38,3.53"/>
				</g>
			</g>
			<g>
				<g>
					<path class="st28" d="M141.82,243.88c0.39,2.16,2.78,3.49,4.67,4.13c3.05,1.02,6.63,1.1,9.6-0.23c0.45-0.2,2.7-1.43,2.63-2
						c-0.14-1.17-0.32-4.41-0.49-5.58c-0.6-4.14-1.1-8.31-1.88-12.42c-0.63-3.32-1.47-6.98-4.25-8.89
						c-2.97-2.04-7.58-0.98-9.38,2.14c-1.53,2.64-1.08,5.91-0.83,8.94C142.14,233,141.66,243.02,141.82,243.88z"/>
				</g>
				<path class="st26" d="M148.26,235.38c1.52,5.13,4.8,10.34,10.33,11.28c0.33-0.31,0.56-0.64,0.53-0.93
					c-0.06-0.52-0.14-1.47-0.21-2.45c-0.09-1.22-0.19-2.48-0.28-3.14c-0.17-1.14-0.32-2.28-0.48-3.42
					c-0.01-0.05-0.02-0.11-0.02-0.16c-1,0.06-1.99,0.11-2.99,0.1C152.72,236.63,150.59,235.68,148.26,235.38z"/>
			</g>
			<g>
				<g>
					<path class="st28" d="M148.47,237.01c2.5,3.35,6.63,5.33,10.75,5.32c3.18-0.01,4.69-1.86,5.69-4.75
						c0.73-2.1,1.24-4.27,1.54-6.48c0.15-1.11,0.34-2.31,0.28-3.44c-0.05-1.01-0.55-1.95-0.49-2.98c0.04-0.72,0.34-1.41,0.41-2.13
						c0.15-1.48-0.65-2.77-1.37-3.98c-0.72-1.22-1.18-2.45-1.75-3.72c-3.13-6.89-13.24-9.01-18.91-4.37
						c-6.81,5.57-7.17,13.52-3.53,19.2"/>
					<path class="st26" d="M143.33,211.64c1.93,1.15,4.59,1.72,6.67,2.38c4.6,1.46,9.44,3.24,14.23,2.42
						c-0.23-0.53-0.45-1.05-0.7-1.59c-3.13-6.89-13.24-9.01-18.91-4.37C144.16,210.86,143.73,211.25,143.33,211.64z"/>
					<g>
						<path class="st5" d="M158.15,214.8c-1.24-0.32-2.47-0.77-3.66-1.23c-2.94-1.14-6.07-2.36-9.16-1.73
							c0.3,3.13,1.27,5.97,2.26,8.96c-0.91,0.48-1.81,0.95-2.72,1.43c-0.18,0.82,0.22,1.65,0.65,2.36c0.43,0.72,0.94,1.44,1.01,2.28
							c0.07,0.83-0.5,1.8-1.34,1.78c-0.73-1.14-1.46-2.28-2.2-3.43c-1.03,2.54-0.45,5.41,0.15,8.08c-0.12-0.54-1.71-1.06-2.16-1.39
							c-1.22-0.9-1.51-2.22-2.31-3.44c-1.75-2.66-3.66-5.26-5.3-7.98c-0.77-1.27-1.25-2.58-1.87-3.91
							c-0.52-1.11-1.04-1.94-0.56-3.22c0.39-1.04,1.35-1.84,2.43-2.04c-0.69-5.82,4.09-12.1,10.23-11.83
							c3.53,0.15,6.91,1.19,10.37,1.79c2.35,0.41,4.74,0.43,7.08-0.09c0.9-0.2,1.79-0.75,2.68-0.68c1.1,0.09,2.34,1.01,3.11,1.75
							c1.9,1.83,2.72,4.71,2.08,7.27c-0.64,2.56-2.73,4.71-5.27,5.42C161.87,215.46,159.99,215.27,158.15,214.8z"/>
						<g class="st29">
							<g>
								<g>
									<path class="st2" d="M134.83,210.18c0.44-4.04,2.84-7.02,6.34-8.93c0.11-0.06,0.04-0.25-0.09-0.21
										c-3.8,1.32-6.21,5.21-6.28,9.14C134.8,210.21,134.83,210.21,134.83,210.18L134.83,210.18z"/>
								</g>
							</g>
							<g>
								<g>
									<path class="st2" d="M138.51,204.96c2.1-1.71,4.67-2.5,7.33-2.8c0.12-0.01,0.12-0.18,0-0.18c-2.84-0.11-5.3,1.08-7.37,2.94
										C138.43,204.95,138.48,204.99,138.51,204.96L138.51,204.96z"/>
								</g>
							</g>
							<g>
								<g>
									<path class="st2" d="M150.25,208.46c4.52,2.44,11.4,5.61,15.72,1.03c0.08-0.09-0.03-0.25-0.13-0.17
										c-5.12,3.51-10.44,1.49-15.56-0.89C150.24,208.41,150.22,208.45,150.25,208.46L150.25,208.46z"/>
								</g>
							</g>
							<g>
								<g>
									<path class="st2" d="M168.35,207.16c0.03,1.45-0.42,2.95-1.49,3.97c-1.07,1.02-2.34,1.21-3.64,1.76
										c-0.16,0.07-0.16,0.32,0.04,0.33c3.15,0.09,5.79-3.03,5.13-6.06C168.39,207.13,168.35,207.14,168.35,207.16L168.35,207.16z
										"/>
								</g>
							</g>
							<g>
								<g>
									<path class="st2" d="M158.34,203.39c1.66,0.16,3.44-0.18,4.79-1.22c0.1-0.07,0.02-0.22-0.1-0.17
										c-1.51,0.79-2.96,1.32-4.69,1.34C158.32,203.35,158.32,203.39,158.34,203.39L158.34,203.39z"/>
								</g>
							</g>
							<g>
								<g>
									<path class="st2" d="M142.69,217.6c0.5-0.37,1.04-0.7,1.51-1.1c0.06-0.05-0.02-0.16-0.08-0.11
										c-0.51,0.35-0.97,0.79-1.45,1.18C142.65,217.58,142.67,217.61,142.69,217.6L142.69,217.6z"/>
								</g>
							</g>
							<g>
								<g>
									<path class="st2" d="M142.13,219.07c0.93-0.63,1.99-1.14,2.83-1.9c0.07-0.07-0.02-0.18-0.1-0.13
										c-1,0.52-1.84,1.33-2.76,1.98C142.07,219.04,142.09,219.09,142.13,219.07L142.13,219.07z"/>
								</g>
							</g>
							<g>
								<g>
									<path class="st2" d="M142.21,220.19c0.81-0.52,1.66-0.99,2.43-1.57c0.06-0.05,0.01-0.15-0.06-0.11
										c-0.83,0.49-1.59,1.09-2.39,1.63C142.15,220.16,142.18,220.21,142.21,220.19L142.21,220.19z"/>
								</g>
							</g>
							<g>
								<g>
									<path class="st2" d="M142.4,221.14c0.83-0.46,1.71-0.79,2.47-1.36c0.11-0.08,0.02-0.24-0.11-0.18
										c-0.87,0.4-1.58,1.02-2.38,1.53C142.37,221.12,142.39,221.14,142.4,221.14L142.4,221.14z"/>
								</g>
							</g>
						</g>
					</g>
				</g>
				<g>
					<path class="st5" d="M163.19,224.98c0.27,0.49,0.88,0.67,1.37,0.41c0.49-0.27,0.67-0.88,0.41-1.37
						c-0.27-0.49-0.88-0.67-1.37-0.41C163.11,223.87,162.93,224.49,163.19,224.98z"/>
					<path class="st5" d="M153.99,225.17c0.27,0.49,0.88,0.67,1.37,0.41c0.49-0.27,0.67-0.88,0.41-1.37
						c-0.27-0.49-0.88-0.67-1.37-0.41C153.91,224.07,153.72,224.68,153.99,225.17z"/>
					<g>
						<path class="st5" d="M156.86,220.6c-1.38-1.36-5.48-1.17-6.8,0.18c-0.15,0.15-0.04,0.42,0.17,0.42
							c1.16-0.02,2.28-0.61,3.48-0.67c1.04-0.05,2.12,0.27,3.14,0.09C156.87,220.63,156.87,220.61,156.86,220.6L156.86,220.6z"/>
					</g>
					<g>
						<path class="st5" d="M162.52,220.99c0.69-0.17,1.3-0.46,2.02-0.5c0.61-0.03,1.21,0.24,1.8,0.14c0.22-0.04,0.25-0.32,0.12-0.46
							c-0.48-0.54-1.49-0.52-2.15-0.45c-0.74,0.08-1.52,0.29-2.03,0.85C162.12,220.75,162.28,221.05,162.52,220.99L162.52,220.99z"
							/>
					</g>
					<g>
						<path class="st5" d="M162.27,234.53c-0.34-0.18-0.84-0.04-1.2,0.02c-0.51,0.08-0.93,0.07-1.43-0.09
							c-0.48-0.15-0.94-0.36-1.43-0.44c-0.49-0.08-1.05-0.01-1.4,0.34c-0.49,0.47-0.44,1.32-0.04,1.87s1.08,0.83,1.74,0.97
							c1.08,0.23,2.24,0.24,3.06-0.55c0.41-0.4,1.41-1.48,0.77-2.06C162.33,234.57,162.3,234.55,162.27,234.53z"/>
						<path class="st30" d="M157.77,234.01c-0.36,0.01-0.7,0.12-0.96,0.36c-0.49,0.47-0.44,1.32-0.04,1.87
							c0.41,0.55,1.08,0.83,1.74,0.97c1.05,0.22,2.19,0.24,3-0.5C160.48,235.53,159.24,234.45,157.77,234.01z"/>
					</g>
					<path class="st28" d="M161.03,225c1.01,2.01,2.02,4.03,3.03,6.04c0.08,0.17,0.17,0.35,0.11,0.53c-0.08,0.23-0.36,0.31-0.6,0.35
						c-1.01,0.18-2.01,0.37-3.02,0.55"/>
				</g>
				<g>
					<path class="st28" d="M143.57,226.62c-0.11-0.34-0.24-0.67-0.39-0.99c-0.46-0.97-1.17-1.85-2.06-2.24
						c-0.89-0.38-1.96-0.17-2.46,0.68c-0.46,0.79-0.35,1.9-0.11,2.88c0.64,2.56,2.06,4.91,3.95,6.52c0.47,0.4,1.02,0.77,1.57,0.72
						c0.55-0.06,1.02-0.75,0.75-1.34"/>
					<path class="st28" d="M139.98,227.64c-0.07-0.34-0.15-0.69-0.09-1.03c0.06-0.34,0.28-0.68,0.62-0.77
						c0.34-0.09,0.7,0.1,0.93,0.37c0.78,0.97,1.03,2.08,1.58,3.17c-0.25-0.07-0.57-0.1-0.77,0.1c-0.14,0.14-0.18,0.36-0.15,0.56
						c0.11,0.83,0.89,1.03,1.59,1.06"/>
				</g>
			</g>
			<g>
				<g>
					<g>
						<path class="st25" d="M194.85,307.75c3.18-0.96,6.1-2.75,8.4-5.14c0.47-0.49,1.69-1.86,2.31-1.59
							c0.36,0.15,0.09,1.03,0.11,1.42c0.02,0.39-0.22,1.11-0.36,1.48c-0.75,1.88-1.92,3.59-3.42,4.95"/>
						<g>
							<path class="st26" d="M194.85,307.76c3.45-0.73,6.18-2.39,8.7-4.84c0.32-0.31,1.22-1.49,1.74-1.28
								c0.33,0.13-0.57,2.58-0.62,2.68c-0.74,1.67-1.95,2.96-3.03,4.4c-0.17,0.22,0.16,0.54,0.38,0.38
								c1.71-1.18,2.96-3.16,3.68-5.08c0.28-0.73,1.04-2.92,0.01-3.42c-1.1-0.53-2.45,1.35-3.04,1.95c-2.2,2.22-4.99,3.93-7.85,5.18
								C194.84,307.74,194.84,307.76,194.85,307.76L194.85,307.76z"/>
						</g>
					</g>
					<path class="st28" d="M145.2,298.49c1.33-4.26,6.06-6.44,10.16-4.67l29.09,12.5c3.07,1.32,6.36,2.09,9.66,1.18
						c3.59-1,6.96-3.02,10.78-3.07c3.19-0.04,6.22,1.37,8.93,3.05c0.5,0.31,0.78,1.08,0.14,1.45c-0.7,0.41-2.13-0.3-2.81-0.55
						c-0.92-0.34-1.84-0.73-2.79-0.97c-1.08-0.28-2.91-0.77-3.8,0.32c3.46,0.71,6.8,1.78,9.95,3.39c0.48,0.24,1.02,0.6,1.03,1.13
						c0.02,0.54-0.55,0.95-1.09,0.97c-0.54,0.02-1.05-0.23-1.54-0.46c-2.8-1.3-5.86-2.02-8.95-2.11c2.92,0.08,5.71,1.1,8.28,2.41
						c0.55,0.28,1.24,0.7,1.35,1.36c0.04,0.22-0.01,0.46-0.15,0.63c-0.32,0.4-1.03,0.13-1.44,0.03c-1.39-0.34-2.63-1.11-4-1.48
						c-1.48-0.41-3.13-0.39-4.62-0.04c0.28-0.07,0.76,0.09,1.05,0.12c0.33,0.04,0.65,0.09,0.98,0.15c0.72,0.14,1.44,0.32,2.14,0.53
						c0.57,0.17,1.14,0.38,1.64,0.7c0.5,0.33,0.93,0.79,1.12,1.35c0.1,0.28,0.13,0.59,0.03,0.87c-0.1,0.28-0.36,0.51-0.65,0.53
						c-0.26,0.01-0.5-0.13-0.72-0.26c-1.05-0.59-2.26-0.84-3.46-0.9c-1.03-0.05-2.07,0.03-3.1,0.13c-0.43,0.04-0.83,0.15-1.27,0.18
						c-0.54,0.04-1.08,0.09-1.62,0.15c-2.13,0.23-4.25,0.59-6.4,0.72c-3.01,0.18-5.71-0.63-8.62-1.32
						c-6.09-1.45-12.19-2.9-18.28-4.35c-5.41-1.29-10.83-2.58-16.13-4.25C146.14,306.67,143.96,302.44,145.2,298.49z"/>
				</g>
				<g>
					<path class="st18" d="M136.28,299.77c0.88,1.3,1.77,2.58,2.73,3.82c1.34,1.73,2.87,3.42,4.87,4.32
						c1.38,0.62,2.97,0.83,4.44,0.44c0.42,1.44,1.35,2.73,2.58,3.59c0.5-6.44,2.87-12.73,6.74-17.91c-2.65-2.46-4.58-5.13-5.54-8.56
						c-0.97-3.46-3.63-6.41-5.1-9.69c-1.99-4.44-4.51-8.73-7.13-12.89c-2.47-3.92-5.68-7.67-10.04-9.23
						c-3.53-1.26-8.72-0.7-11.13,2.53c-2.42,3.24-1.14,8.02,0.19,11.46c2.03,5.26,4.01,10.72,6.61,15.73
						c2.61,5.01,6.32,9.69,9.45,14.41C135.4,298.44,135.84,299.11,136.28,299.77z"/>
					<g>
						<path class="st19" d="M156.44,292.57c-5.17,3.19-9.6,8.51-11.76,14.14"/>
					</g>
					<g>
						<path class="st19" d="M156.23,292.64c-4.82,0.73-8.27,2.62-11.49,6.28"/>
					</g>
				</g>
			</g>
			<g>
				<g>
					<path class="st10" d="M243.77,405.64l5.26,11.18l34.02-15.99l0,0c-1.38-2.93-4.67-4.43-7.78-3.54
						c-5.53,1.59-14.77,2.52-23.94-4.24L243.77,405.64z"/>
					<path class="st10" d="M138.35,364.5l58.8,14.36l48.15,28.95c5.34-4.23,8.06-9.65,8.86-15.95l-49.04-36.63l-57.14-11.52
						L138.35,364.5z"/>
				</g>
				<g>
					<path class="st10" d="M231.79,415.99v12.35h37.6l0,0c0-3.24-2.34-6-5.54-6.51c-5.68-0.92-14.44-4-19.87-14.02L231.79,415.99z"
						/>
					<path class="st16" d="M155.55,330.86l-42.74,0.01l1.14,10.45c0.77,7.06,4.47,13.52,10.27,17.62c4.79,3.38,11.21,6.26,18.82,5.6
						c17.04-1.48,58.4-8.86,58.4-8.86l25.7,61.15c7.79-1,14.83-3.73,20.68-9.16l-28.34-69.52c-1.8-4.41-6.08-7.29-10.84-7.29H155.55
						z"/>
				</g>
			</g>
			<g>
				
					<rect x="144.38" y="367.29" transform="matrix(-1 -1.224647e-16 1.224647e-16 -1 292.3812 786.5241)" class="st16" width="3.63" height="51.93"/>
				<path class="st7" d="M183.68,363.88h-39.59c-10.44-4.7-18.57-13.9-21.63-25.51l-19.15-72.67c-0.52-1.96-2.28-3.32-4.31-3.32
					H85.72c-0.55-0.14-1.14-0.16-1.73,0l0,0v0c-1.82,0.48-2.91,2.35-2.43,4.17l19.16,72.69c4.88,18.53,21.67,31.46,40.83,31.46
					h42.13c1.88,0,3.41-1.53,3.41-3.41C187.09,365.41,185.56,363.88,183.68,363.88z"/>
				<path class="st31" d="M183.68,363.88h-39.59c0,0,5.15,1.9,12.85,3.09c7.7,1.19,30.15,0.32,30.15,0.32
					C187.09,365.41,185.56,363.88,183.68,363.88z"/>
				<path class="st7" d="M128.25,428.17c11.88-4.72,23.76-4.72,35.64,0v-8.94c-10.32-3.99-21.54-5.68-35.64,0V428.17z"/>
			</g>
		</g>
		<g>
			<g>
				<path class="st32" d="M286.16,260.84c10.38,16.22,13.52,22.47,15.26,25.22c1.18,1.87,0.96,1.6,2.07,2.44
					c2.28,1.73,6.14-1.42,7.57-3.9c2.93-5.09,15.1-27.46,16.25-34.26c0.32-1.92-2.01-3.86-3.78-4.66c-1.72-0.78-3.17-0.72-5.09,1.94
					c-0.01,0.02-0.02,0.03-0.04,0.05c-3,4.18-9.26,22.37-12.78,28.42c-0.45-0.67-9.43-11.87-11.71-16.4l-1.33-7.15l-0.79-8.02l0,0
					c-1.13,0.27-1.97,1.22-2.11,2.37l-0.38,3.25l-2.53,0.36l-10.63-7.9c-0.31-0.23-0.72-0.26-1.06-0.09l0,0
					c-0.67,0.33-0.76,1.25-0.17,1.71l5.04,3.98l-1.41-0.72c-0.71-0.36-1.56,0.07-1.68,0.86l0,0c-0.07,0.45,0.13,0.9,0.51,1.15
					l1.11,0.74l-0.13,0.6c-0.16,0.75,0.17,1.51,0.82,1.9l0.65,0.39l0,0c-0.32,0.8-0.01,1.71,0.72,2.16l0.6,0.37l0,0
					C282.19,258.33,283.53,259.65,286.16,260.84z"/>
				<g>
					<g>
						<path class="st33" d="M307.89,281.57c-0.06-1.2-0.52-2.32-0.98-3.42c-0.43-1.03-0.88-2.4-1.81-3.07
							c-0.17-0.12-0.33,0.08-0.3,0.23c0.15,1.03,0.97,2.05,1.43,2.99c0.53,1.1,0.89,2.27,1.53,3.31
							C307.78,281.67,307.89,281.65,307.89,281.57L307.89,281.57z"/>
					</g>
				</g>
				<path class="st11" d="M282.26,254.81l-5.17-15.12c-0.22-0.65,0.24-1.34,0.94-1.37l7.86-0.35c0.44-0.02,0.83,0.25,0.97,0.66
					l5.16,15.12c0.22,0.65-0.24,1.34-0.94,1.37l-7.86,0.35C282.79,255.49,282.4,255.22,282.26,254.81z"/>
				<g>
					<path class="st11" d="M286.86,238.63c-0.14-0.41-0.54-0.68-0.97-0.66l-7.86,0.35c-0.15,0.01-0.28,0.05-0.41,0.11
						c-0.12,0.24-0.15,0.51-0.06,0.79l0.1,0.3l9.33-0.5L286.86,238.63z"/>
					<path class="st11" d="M291.84,253.21l-9.34,0.44l0.23,0.68c0.14,0.41,0.54,0.68,0.97,0.66l7.86-0.35
						c0.15-0.01,0.28-0.05,0.41-0.11c0.12-0.24,0.15-0.51,0.06-0.79L291.84,253.21z"/>
				</g>
				<g>
					<polygon class="st12" points="286.99,239.02 277.67,239.51 282.49,253.65 291.84,253.21 					"/>
				</g>
				<path class="st32" d="M279.45,247.93l2.09,1.29c0.89,0.56,1.36,1.6,1.18,2.64l-0.01,0.06l0.74,0.4
					c0.36,0.19,0.56,0.58,0.51,0.99l0,0c-0.08,0.63-0.71,1.03-1.31,0.81l-3.18-1.24"/>
				<g>
					<g>
						<path class="st33" d="M278.84,250.43c0.43,0.49,1.05,0.75,1.64,1c0.75,0.33,1.51,0.64,2.27,0.94
							c0.34,0.13,0.58-0.44,0.25-0.59c-0.68-0.3-1.37-0.59-2.06-0.87c-0.66-0.27-1.35-0.59-2.07-0.54
							C278.83,250.38,278.82,250.41,278.84,250.43L278.84,250.43z"/>
					</g>
				</g>
				<g>
					<g>
						<path class="st18" d="M325.16,264.06c0,0-9.38-2.8-14.23-4.45c0.74-3.27,2.89-9.14,4.23-12.2c0.96-2.17,2.12-4.35,4-5.78
							c2.22-1.69,5.33-2.12,7.92-1.09c2.22,0.88,3.77,2.19,4.52,4.46c0.79,2.39,0.54,3.49-0.25,5.59
							C329.91,254.42,325.16,264.06,325.16,264.06z"/>
					</g>
					<g>
						<path class="st19" d="M331.6,245c-0.75-2.27-2.3-3.58-4.52-4.46c-1.94-0.77-4.16-0.73-6.09,0.05c0.01,0.06,0.01,0.13-0.01,0.2
							c-0.81,2.84-5.47,18.97-5.86,20.19c4.7,1.49,10.04,3.08,10.04,3.08s4.75-9.63,6.19-13.47
							C332.13,248.49,332.39,247.39,331.6,245z"/>
					</g>
				</g>
			</g>
			<g>
				<path class="st34" d="M345.53,363.21c2.92-3.06,7.97-4.04,10.98-0.62c0.27,0.31,0.5,0.67,0.74,1.02
					c0.93,2.59,1.72,5.23,2.08,8.34c-0.62,11.53-0.43,20.83-2.34,33.59c-0.37,2.46,0.2,14.99-2.88,15.11
					c-3.52,0.22-4.81-1.58-4.87-7.12c-0.06-6.6-0.6-13.19-1.93-19.66c-0.41-1.99-0.82-3.99-1.23-5.98
					c-1.54-7.47-2.74-12.27-4.03-17.81C342.62,367.47,343.78,365.04,345.53,363.21z"/>
				<path class="st33" d="M355,401.41c1.07-0.05,2.02-0.3,2.89-0.68c0.85-7.18,1.08-13.39,1.32-19.87c0.1-2.85,0.21-5.8,0.38-8.93
					c-0.39-3.37-1.28-6.14-2.09-8.4c-0.01-0.02-0.02-0.04-0.03-0.06l-0.17-0.25c-0.18-0.27-0.36-0.54-0.58-0.79
					c-1.25-1.43-2.92-2.21-4.83-2.25c-0.05,0-0.11,0-0.16,0c-2.28,0-4.66,1.06-6.38,2.86c-1.7,1.78-2.93,4.2-3.55,6.99
					c-0.01,0.04-0.01,0.08,0,0.12c0.28,1.22,0.56,2.4,0.84,3.58c0.98,4.13,1.99,8.39,3.19,14.22l1.23,5.98
					c0.41,1.97,0.74,4,1.02,6.09C350,401.37,352.7,401.52,355,401.41z"/>
				<path class="st16" d="M336.49,339.27c1.25-3.93,2.5-7.86,3.75-11.8c3.75-11.79,7.5-23.58,11.25-35.36
					c0.69-2.18,2.96-3.56,4.5-5.26c3.21-3.53,7.18-2.45,10.91-0.88c3.8,1.6,7.26,2.82,7.88,7.57c0.86,6.53-2.38,12.02-4.85,17.76
					c-3.08,7.14-6.29,14.23-8.82,21.6c-2.03,5.91-5.75,11.78-5.35,18.25c0.37,6.08,3.53,10.99,4.26,17.17
					c0.51,4.33,0.12,8.7-0.28,13.04c-0.41,4.47-0.14,8.83-0.55,13.3c-0.53,5.79-2.81,5.16-8.44,5.11c-3.31-0.03-5.29-3.04-6.25-7.77
					c-1.33-6.63-2.65-13.26-4.12-19.85c-0.86-3.84-1.58-7.98-3.1-11.63c-2.16-5.21-4.41-9.93-2.68-15.35
					C335.24,343.19,335.86,341.23,336.49,339.27z"/>
				<path class="st10" d="M374.78,293.54c-0.37-2.82-1.74-4.39-3.59-5.54c-0.78,3.18-1.5,6.38-2.25,9.57
					c-1.25,5.28-2.92,10.43-4.3,15.67c-1.4,5.29-2.55,10.65-3.79,15.98c-0.75,3.24-1.59,6.45-2.16,9.7
					c0.85-2.02,1.74-4.02,2.43-6.03c2.53-7.36,5.74-14.46,8.82-21.6C372.4,305.56,375.64,300.07,374.78,293.54z"/>
				<path class="st10" d="M352.02,416.58c-0.97-1.26-1.97-2.49-2.96-3.74c-0.53-0.67-1.54-1.61-2.41-0.88
					c-0.75,0.63-0.98,2-1.61,2.78c-0.68,0.83-1.67,1.35-2.65,1.82c-3.5,1.68-7.25,2.61-10.7,4.41c-1.23,0.64-2.94,0.7-3.43,2.11
					c-0.59,1.68,0.43,3.4,1.88,3.59c1.2,0.15,2.41,0.23,3.62,0.24c2.15,0.01,4.31-0.21,6.39-0.73c2.04-0.51,4.01-1.31,6.09-1.63
					c2.97-0.45,7.35-0.1,10.29-0.8c2.19-0.08,1.71-2.31,1.94-4.77c0.12-1.31,0.21-3.04-0.51-4.21c-0.12-0.16-0.19-0.34-0.95-0.77
					c0.08,1.19-0.87,3.49-1.93,3.93C353.69,418.49,352.78,417.57,352.02,416.58z"/>
				<path class="st16" d="M352.28,414.84c-0.97-1.26-1.97-2.49-2.96-3.74c-0.53-0.67-1.54-1.61-2.41-0.88
					c-0.75,0.63-0.98,2-1.61,2.78c-0.68,0.83-1.67,1.35-2.65,1.82c-3.5,1.68-7.25,2.61-10.7,4.41c-1.23,0.64-3.18,1.79-3.67,3.2
					c-0.59,1.68,0.67,2.3,2.12,2.49c1.2,0.15,2.41,0.23,3.62,0.24c2.15,0.01,4.31-0.21,6.39-0.73c2.04-0.51,4.01-1.31,6.09-1.63
					c2.97-0.45,7.35-0.1,10.29-0.8c2.19-0.08,1.71-2.31,1.94-4.77c0.12-1.31,0.21-3.04-0.51-4.21c-0.12-0.16-0.19-0.34-0.95-0.77
					c0.08,1.19-0.87,3.49-1.93,3.93C353.94,416.75,353.04,415.83,352.28,414.84z"/>
			</g>
			<g>
				<path class="st34" d="M380.25,362.39c2.19-3.86,7.08-6.16,11.01-3.44c0.36,0.25,0.68,0.56,1.01,0.85
					c1.61,2.39,3.09,4.88,4.26,7.95c2.33,11.89,4.9,21.3,6.24,34.77c0.26,2.59,4.04,15.2,0.95,16.12c-3.52,1.13-5.3-0.37-6.78-6
					c-1.76-6.7-4-13.27-7.01-19.51c-0.93-1.92-1.86-3.85-2.79-5.77c-3.48-7.21-5.93-11.78-8.67-17.08
					C378.38,367.47,378.94,364.7,380.25,362.39z"/>
				<path class="st33" d="M402.47,397.6c-0.98-7.63-2.35-14.05-3.79-20.78c-0.62-2.93-1.27-5.95-1.91-9.17
					c-1.27-3.33-2.88-5.92-4.28-8.01c-0.01-0.02-0.03-0.04-0.05-0.05l-0.24-0.22c-0.25-0.22-0.51-0.45-0.79-0.65
					c-1.64-1.13-3.53-1.49-5.48-1.04c-2.38,0.55-4.59,2.26-5.91,4.58c-1.28,2.25-1.91,5.02-1.82,8.02c0,0.04,0.01,0.08,0.03,0.11
					c0.6,1.16,1.18,2.27,1.76,3.39c2.06,3.96,4.19,8.05,6.91,13.68l2.79,5.77c0.96,1.98,1.85,4.04,2.69,6.17
					C395.86,400.07,399.81,399.7,402.47,397.6z"/>
				<path class="st16" d="M364.91,340.34c0.26-4.32,0.53-8.64,0.79-12.96c0.48-7.84,0.96-15.68,1.44-23.52
					c0.41-6.79,1.44-13.22,1.7-19.96c0.11-2.83,0.83-5.9,3.08-7.63c1.94-1.49,4.69-1.64,7-0.82c2.31,0.81,4.24,2.47,5.86,4.3
					c11.95,13.52,4.87,31.96,3.54,47.78c-0.55,6.53-2.83,13.46-0.77,19.94c1.94,6.09,6.41,10.27,8.74,16.37
					c1.63,4.27,2.35,8.83,3.07,13.34c0.73,4.65,2.12,9.02,2.86,13.67c0.95,6.03-1.54,5.97-7.27,7.36c-3.37,0.82-6.16-1.73-8.35-6.31
					c-3.06-6.4-6.1-12.81-9.29-19.14c-1.86-3.69-3.65-7.71-6.13-11.03c-3.53-4.74-7.03-8.97-6.67-14.93
					C364.64,344.66,364.77,342.5,364.91,340.34z"/>
				<path class="st16" d="M402.42,410c-1.89-0.38-5.34-0.68-6.57,1.22c-1.17,1.82-1.01,4.27-1.06,6.34c-0.06,2.69-0.32,5.41,0,8.1
					c0.34,2.89,1.47,6.18,4.19,7.65c2.9,1.57,7.74,0.2,10.63-0.9c0.34-0.13,0.69-0.28,0.89-0.59c0.16-0.26,0.18-0.58,0.19-0.89
					c0.09-6.04-3.34-11.34-4.54-17.17C405.74,411.77,404.49,410.42,402.42,410z"/>
				<path class="st10" d="M398.24,430.15c2.9,1.57,7.74,0.2,10.63-0.9c0.34-0.13,0.69-0.28,0.89-0.59c0.16-0.26,0.18-0.58,0.19-0.89
					c0.02-1.06-0.08-2.1-0.25-3.12c0.61,2.04,1.03,4.11,1,6.28c0,0.31-0.02,0.63-0.19,0.89c-0.19,0.31-0.55,0.46-0.89,0.59
					c-2.89,1.09-7.73,2.47-10.63,0.9c-2.66-1.44-3.8-4.63-4.16-7.47C395.48,427.62,396.55,429.24,398.24,430.15z"/>
			</g>
			<g>
				<path class="st10" d="M372.95,297.18c5.62-3.37,11.45-10.07,12.15-17.04c-0.11-0.13-0.21-0.26-0.32-0.38
					c-1.62-1.84-3.55-3.49-5.86-4.3c-2.31-0.81-5.06-0.67-7,0.82c-2.25,1.73-2.97,4.8-3.08,7.63c-0.04,0.95-0.09,1.88-0.15,2.82
					c-0.58-0.25-1.18-0.5-1.78-0.75c-3.73-1.57-7.7-2.65-10.91,0.88c-1.54,1.69-3.8,3.07-4.5,5.26c-0.9,2.82-1.8,5.64-2.69,8.47
					C357.11,301.31,365.52,301.65,372.95,297.18z"/>
				<g>
					<g>
						<path class="st18" d="M383.47,277.04c-4.37-2.91-8.28-6.55-11.55-10.8c-5.19-6.75-8.73-14.94-14.24-21.87
							c-4.51-5.68-10.69-10.4-18.11-11.61c-7.46-1.22-12.27,1.06-16.87,7.53c-1.65,2.33-2.56,4.86-2.79,7.67
							c-0.37,4.46,0.28,8.86,0.66,13.2c0.19,2.17,0.38,4.17,1.69,5.94c1.5,2.02,3.79,2.37,5.89,3.64c6.68,4.03,11.14,9.31,15.3,15.5
							c2.06,3.05,3.98,6.1,5.98,9.11C362.21,301.88,381.69,291.09,383.47,277.04z"/>
					</g>
				</g>
				<path class="st19" d="M345.73,236.24c-1.85-0.53-3.91-0.25-5.56,0.75c-3.37,2.05-5.25,9.09-6.55,12.53
					c-1.27,3.38-2.54,6.75-3.81,10.13c0.43,0.61,0.98,1.14,1.59,1.61l-3.15,7.86c-0.2,0.51-0.38,0.96-0.54,1.37
					c0.15,0.08,0.29,0.15,0.44,0.24c3.25,1.96,5.97,4.23,8.39,6.74c0.02-0.04,0.03-0.07,0.05-0.11l1.48-3.47
					c1.02-2.39,2.04-4.78,3.07-7.16c0.03-0.07,0.06-0.14,0.09-0.21c0.15-0.35,0.31-0.71,0.46-1.06c0.06-0.14,0.12-0.27,0.18-0.41
					c0.03-0.07,0.06-0.14,0.09-0.2c0.53,0.05,1.06,0.09,1.58,0.1c0.25-0.57,0.43-1.28,0.62-1.73c1.65-3.92,3.34-7.83,4.86-11.8
					c0.41-1.07,1.69-4.84,1.86-5.99C351.49,241.4,349.93,237.44,345.73,236.24z"/>
				<g>
					<path class="st35" d="M313.06,221.19c1.97-1.39,5.26-3.63,7.94-3c0.7,0.16,1.33,0.54,1.89,1.03c-0.26,2.24,0.91,4.9,1.68,6.71
						c1.83,4.29,4.51,7.11,9.75,6.73c-0.52,0.8,0.19,6.28,0.38,6.86c1.16,3.5,2.12,6.47,1.13,10.46c-0.97,3.91-3.83,6.46-7.84,7.27
						c-3.64,0.73-6.36-1.3-7.05-4.6c0.15-3.4,0.11-6.98-0.7-10.02c-0.88-3.27-3.79-7.91-5.29-10.78c-1.23-2.34-4.01-5.98-3.29-8.72
						C311.84,222.39,312.28,221.74,313.06,221.19z"/>
					<path class="st36" d="M316.02,234.39c1.46,2.62,3.29,5.88,3.94,8.3c0.01,0.03,0.01,0.07,0.02,0.1
						c0.82-1.39,1.54-2.84,2.18-4.31c1.84-4.24,2.47-8.32,2.6-12.78l-0.02-0.04c-0.78-1.82-1.84-4.31-1.59-6.42
						c0.01-0.09-0.03-0.18-0.09-0.24c-0.66-0.57-1.32-0.92-2.01-1.08c-2.87-0.67-6.44,1.84-8.16,3.05
						c-0.78,0.55-1.29,1.25-1.51,2.08c-0.6,2.28,1.05,5.06,2.38,7.3c0.34,0.58,0.67,1.13,0.93,1.61
						C315.07,232.68,315.53,233.5,316.02,234.39z"/>
					<g>
						<g>
							<path class="st33" d="M326.78,245.06c1.35-2.54,4.85-2.42,6.57-4.71c0.11-0.15-0.11-0.36-0.26-0.26
								c-0.68,0.46-1.27,1.02-1.97,1.45c-0.74,0.46-1.54,0.77-2.32,1.15c-0.96,0.47-2.07,1.17-2.08,2.35
								C326.71,245.07,326.76,245.09,326.78,245.06L326.78,245.06z"/>
						</g>
					</g>
					<g>
						<g>
							<path class="st33" d="M324.14,245.9c-0.9-0.48-2.36-0.79-3.23-0.07c-0.09,0.08-0.02,0.26,0.1,0.25
								c0.49-0.05,0.93-0.28,1.42-0.33c0.54-0.05,1.18,0.01,1.68,0.21C324.15,245.97,324.17,245.92,324.14,245.9L324.14,245.9z"/>
						</g>
					</g>
				</g>
			</g>
			<g>
				<path class="st35" d="M306.51,314.29c2.18-3.1,4.36-6.17,6.52-9.24c4.28-6.1,4.83-6.53,8.79-12.66
					c4.22-6.53,6.29-10.13,10.1-16.78c1.93-3.37,3.85-6.73,5.79-10.07c1.64-2.83,3.48-5.62,4-8.96c0.37-2.4-0.16-5.08-1.86-6.47
					c-3.26-2.68-6.64,1.61-8.28,4.64c-2.19,4.03-4.39,8.07-6.6,12.12c-1.99,3.67-2.2,4.27-4.23,7.94c-1.15,2.08-2.29,4.17-3.45,6.25
					c-1.07,1.93-1.9,3.93-3.18,5.73c-2.02,2.84-1.96,2.94-3.65,5.99c-3.91,7.08-5.41,11.7-8.58,19.09
					c-0.28,0.66-0.84,1.39-1.32,1.92c-0.53,0.59-1.3,0.98-1.94,1.46c-1.4,1.04-1.48,2.37-2.68,3.64c-1.18,1.25-1.79,1.67-3.27,2.53
					c0.15,0.65,0.91,1,1.57,0.94c0.66-0.06,1.24-0.16,2.42-1.07c0.53-0.41,0.33-0.53,0.99-0.54c1.2,1.14,2.48,4.97,2.59,5.67
					c0.15,0.92-0.04,1.69-0.14,2.61c-0.05,0.44-0.11,0.9,0.05,1.32c0.11,0.29,0.5,0.74,0.86,0.66c0.4-0.09,0.65-0.74,0.67-1.1
					c0.04-0.66,0.69-2.2,0.69-2.2s-0.04-0.61-0.27-1.26c-0.2-0.55-0.29-1.08-0.56-1.73c1.02,3.08,0.94,3.06,0.64,5.25
					c-0.08,0.58-0.15,1.22,0.21,1.71c0.24,0.33,0.43,0.37,0.8,0.21c0.36-0.16,0.44-0.54,0.5-0.89c0.2-1.08,0.35-2.74,0.67-3.56
					c-0.12-1.47-0.19-2.09-0.92-3.7c0.04,0.06,0.63,1.45,0.87,2.55c0.17,0.79-0.01,2.35,0.02,3.52c0.01,0.32,0.05,0.7,0.31,0.88
					c0.3,0.2,0.74,0.03,0.94-0.28c0.2-0.3,0.22-0.68,0.24-1.05c0.04-0.71,0.33-1.42,0.33-2.16c0-1.47-0.43-2.78-0.86-4.35
					c0.22,0.79,0.58,1.3,0.86,2.07c0.31,0.84,0.03,2.07,0.38,2.62c0.23,0.37,0.76,0.59,1.12,0.34c0.29-0.2,0.01-0.92,0.07-1.27
					c0.25-1.52-0.44-3.24-1.02-4.65C306.22,320.76,304.9,317.09,306.51,314.29z"/>
				<path class="st36" d="M337.83,265.86c0.04-0.07,0.08-0.13,0.12-0.2c0.19-0.33,0.39-0.67,0.59-1c1.47-2.49,2.98-5.06,3.44-8.06
					c0.42-2.76-0.34-5.39-1.95-6.71c-0.93-0.76-1.93-1.04-2.98-0.84c-2.7,0.52-4.88,4.06-5.69,5.56l-3.53,6.49
					C330.23,264.26,333.95,265.88,337.83,265.86z"/>
				<path class="st18" d="M345.95,236.11c-1.77-0.74-3.86-0.7-5.6,0.1c-3.59,1.64-6.28,8.41-7.97,11.68
					c-1.66,3.2-3.31,6.41-4.97,9.61c1.6,2.9,5.38,4.69,8.32,5.71c1.52,0.53,3.1,0.92,4.7,1.15c0.31-0.54,0.58-1.23,0.82-1.65
					c2.1-3.7,4.23-7.38,6.2-11.15c0.53-1.02,2.24-4.61,2.55-5.73C351.06,241.91,349.98,237.79,345.95,236.11z"/>
			</g>
			<g>
				<g>
					<path class="st5" d="M334.14,204.46c2.94,2.71,3.68,6.59,2.69,10.35c-0.85,3.23-2.61,6.24-2.73,9.65
						c-0.13,3.74,1.25,7.48,3.87,10.18c-0.43-0.44-1.56-0.69-2.13-0.96c-6.51-3.14-13.3-8.15-15.07-15.64
						c-1.16-4.92-0.44-11.48,4.35-14.27C327.85,202.18,331.78,202.29,334.14,204.46z"/>
					<g>
						<g>
							<path class="st37" d="M334.81,215.49c1.42-2.69,1.07-6.53-1.23-8.67c-0.15-0.14-0.4,0.04-0.29,0.22
								c1.66,2.74,2.31,5.25,1.49,8.44C334.77,215.49,334.8,215.5,334.81,215.49L334.81,215.49z"/>
						</g>
					</g>
					<g>
						<g>
							<path class="st37" d="M333.59,213.27c0.5-2.53-0.23-5.54-2.34-7.18c-0.09-0.07-0.27,0.02-0.18,0.14
								c1.52,2.2,2.53,4.29,2.48,7.03C333.54,213.29,333.58,213.3,333.59,213.27L333.59,213.27z"/>
						</g>
					</g>
					<g>
						<g>
							<path class="st37" d="M332.87,229.59c-0.52-3.43,0.05-6.58,1.1-9.84c0.04-0.11-0.14-0.19-0.19-0.08
								c-1.48,3.09-1.61,6.62-0.96,9.94C332.83,229.64,332.88,229.62,332.87,229.59L332.87,229.59z"/>
						</g>
					</g>
					<g>
						<g>
							<path class="st37" d="M331.33,210.32c0.39,3.62,0.16,6.89-0.68,10.44c-0.03,0.14,0.18,0.25,0.25,0.11
								c1.57-3.25,1.74-7.18,0.47-10.56C331.37,210.3,331.33,210.3,331.33,210.32L331.33,210.32z"/>
						</g>
					</g>
					<g>
						<g>
							<path class="st37" d="M330.55,228.32c-2.91-2.43-4.8-5.78-6.5-9.11c-0.05-0.1-0.2-0.03-0.17,0.07
								c1.08,3.81,3.66,6.61,6.65,9.06C330.54,228.36,330.57,228.33,330.55,228.32L330.55,228.32z"/>
						</g>
					</g>
				</g>
				<g>
					<path class="st7" d="M329.33,208.69c0.71,3.22-0.19,5.53-2.41,7.25c-1.61-1.06-2.92-2.32-4.17-3.83c-1.65-2-2.84-3.9-2.34-6.38
						c0.24-1.2,0.93-2.37,1.89-3.3C326.33,201.92,328.65,205.61,329.33,208.69z"/>
				</g>
				<g>
					<path class="st38" d="M321.89,208.31c0.88,1.41,1.51,2.99,1.96,4.61c0.7,2.52,1.33,5.31,0.84,7.86
						c-0.55,2.85-1.1,5.67-2.18,8.37c-1.06,2.68-2.48,5.84-4.6,7.78c-1.93,1.76-4.45,1.86-6.72,0.62c-1.84-1.01-3.52-2.61-4.99-4.12
						c-1.57-1.61-3.01-3.38-4.27-5.25c-0.57-0.85-0.66-2.09-0.89-3.08c-0.41-1.79-1.59-3.24-2.3-4.91
						c-1.82-4.32-2.65-8.89,0.48-12.71c1.57-1.92,3.75-3.23,6.05-4.05c2.61-0.93,5.46-1.27,8.2-0.76c2.74,0.51,5.37,1.9,7.25,4.06
						C321.15,207.21,321.54,207.74,321.89,208.31z"/>
				</g>
				<g>
					<g>
						<g>
							<path class="st39" d="M314.47,217.64c-1.85-0.45-4.65-0.32-5.94,1.31c-0.09,0.12-0.01,0.3,0.15,0.26
								c0.92-0.23,1.72-0.78,2.64-1.04c1.01-0.28,2.1-0.45,3.14-0.48C314.49,217.69,314.5,217.65,314.47,217.64L314.47,217.64z"/>
						</g>
					</g>
					<g>
						<g>
							<path class="st39" d="M299.78,221.82c0.76-0.23,1.49-0.57,2.28-0.68c0.56-0.08,1.36,0.1,1.79-0.33
								c0.04-0.05,0.06-0.12,0.02-0.18c-0.4-0.65-1.48-0.38-2.08-0.21c-0.83,0.24-1.58,0.61-2.05,1.34
								C299.73,221.79,299.76,221.83,299.78,221.82L299.78,221.82z"/>
						</g>
					</g>
					<g>
						<path class="st39" d="M311.95,224.06c-1.46,0.37-2.04-1.91-0.57-2.28C312.85,221.42,313.42,223.7,311.95,224.06L311.95,224.06
							z"/>
					</g>
					<path class="st40" d="M306.05,223.44c0.56,1.35,0.74,2.86,0.5,4.3c-0.09,0.56-0.23,1.18,0.08,1.65
						c0.36,0.52,1.09,0.57,1.72,0.57"/>
					<g>
						<path class="st39" d="M304.1,226.15c-1.44,0.45-2.14-1.79-0.69-2.24C304.85,223.47,305.55,225.71,304.1,226.15L304.1,226.15z"
							/>
					</g>
					<g>
						<g>
							<g>
								<path class="st41" d="M312.97,231.95c-0.56,0.19-1.13,0.35-1.73,0.39c-0.57,0.04-1.11-0.07-1.64,0.17
									c-0.55,0.24-0.32,1.03,0.16,1.19c1.11,0.37,2.63-0.77,3.33-1.54C313.16,232.06,313.08,231.9,312.97,231.95L312.97,231.95z"
									/>
							</g>
						</g>
						<g>
							<g>
								<path class="st41" d="M312.64,232.27c-0.25,0.39-0.53,0.69-0.98,0.85c-0.41,0.15-0.83,0.07-1.23,0.2
									c-0.26,0.08-0.43,0.47-0.18,0.67c0.5,0.4,1.36,0.28,1.84-0.12c0.46-0.38,0.76-0.94,0.72-1.55
									C312.81,232.22,312.69,232.18,312.64,232.27L312.64,232.27z"/>
							</g>
						</g>
					</g>
				</g>
				<g>
					<g>
						<path class="st5" d="M294.88,211.33c-1.06,3.39-1.17,7,0.15,10.42c0,0.01,1.97-0.31,2.11-0.4c0.6-0.37,0.39-0.57,0.38-1.36
							c-0.02-1.68,0.15-3.39,0.22-5.07c0.44,1.74,0.88,3.48,1.32,5.22c2.44-0.62,12.88-3.69,13.88-4.1
							c-0.12,0.05-0.36-2.8-0.34-3.05c0.05-1.01,0.4-1.94,0.53-2.92c0.43,1.42,0.75,2.89,1.11,4.33c0.08,0.33,0.18,0.67,0.41,0.92
							c0.37,0.4,0.99,0.43,1.54,0.44c0.67,0.01,1.4-0.01,1.9-0.45c-0.14,0.13,0.14,1.66,0.18,1.89c0.09,0.58,0.21,1.16,0.31,1.74
							c0.07,0.39,0.3,2.39,0.97,2.32c1.46-0.15,1.52-3.55,2.46-4.29c0.66-0.52,1.61-0.65,2.39-0.34c0.78,0.31,1.39,1.04,1.55,1.86
							c0.1,0.48,0.06,0.99,0.19,1.46c0.12,0.42,0.56,1.05,1.05,0.84c0.48-0.21,0.6-1.27,0.66-1.7c1.06-7.61-1.11-16.54-8.62-20.1
							c-3.51-1.66-7.62-1.9-11.38-0.92c-3,0.78-5.83,2.34-7.92,4.64C297.69,205.16,295.87,208.14,294.88,211.33z"/>
					</g>
					<g>
						<g>
							<path class="st37" d="M300.63,218.34c-1.37-5.65-0.41-10.35,3.06-14.98c0.17-0.23-0.19-0.46-0.38-0.29
								c-4.11,3.58-5.37,10.53-2.73,15.3C300.59,218.39,300.64,218.37,300.63,218.34L300.63,218.34z"/>
						</g>
					</g>
					<g>
						<g>
							<path class="st37" d="M303.07,216.14c-0.3-3.79,0.13-7.07,1.17-10.72c0.06-0.22-0.28-0.38-0.39-0.16
								c-1.63,3.27-1.96,7.4-1.02,10.92C302.86,216.3,303.08,216.28,303.07,216.14L303.07,216.14z"/>
						</g>
					</g>
					<g>
						<g>
							<path class="st37" d="M309.54,212.04c0.01-2.19,0.19-4.57-0.25-6.73c-0.04-0.18-0.27-0.11-0.29,0.04
								c-0.28,2.17,0.09,4.52,0.26,6.69C309.27,212.22,309.54,212.23,309.54,212.04L309.54,212.04z"/>
						</g>
					</g>
					<g>
						<g>
							<path class="st37" d="M319.73,211.67c0.06-3.64-0.82-8.27-3.65-10.83c-0.26-0.23-0.61,0.06-0.47,0.36
								c0.82,1.71,1.94,3.16,2.61,4.96c0.66,1.77,1.08,3.63,1.25,5.51C319.48,211.84,319.72,211.84,319.73,211.67L319.73,211.67z"/>
						</g>
					</g>
					<g>
						<g>
							<path class="st37" d="M323.69,208.65c-0.29-2.06-1.07-5.06-2.92-6.28c-0.15-0.1-0.38,0.07-0.32,0.24
								c0.36,0.95,1.06,1.75,1.52,2.66c0.57,1.11,1,2.28,1.29,3.49C323.34,209.04,323.73,208.91,323.69,208.65L323.69,208.65z"/>
						</g>
					</g>
					<g>
						<g>
							<path class="st37" d="M295.21,217.8c0.21-3.89,1.15-7.39,2.57-11c0.07-0.17-0.2-0.26-0.29-0.12
								c-2.07,3.32-2.78,7.26-2.32,11.12C295.17,217.82,295.21,217.82,295.21,217.8L295.21,217.8z"/>
						</g>
					</g>
				</g>
				<g>
					<path class="st42" d="M321.31,219.27c-0.01-1.27,0.7-2.79,1.66-3.6c1.76-1.48,3.55,0.15,3.79,2.03
						c0.32,2.46-0.44,6.06-3.27,6.67"/>
					<path class="st43" d="M325,218.22c0.11-0.55-0.41-1.1-0.87-1c-1.17,0.24-1.19,2.11-1,3.01c0.46-0.29,0.93,0.21,0.88,0.69
						c-0.05,0.48-0.45,0.93-0.87,1.13"/>
				</g>
			</g>
		</g>
	</g>
</g>
</svg>
